<svg id="svg" version="1.1" xmlns="http://www.w3.org/2000/svg" xmlns:xlink="http://www.w3.org/1999/xlink" width="100" height="100" viewBox="0, 0, 400,400"><g id="svgg"><path id="path0" d="M184.800 4.800 C 184.800 5.041,183.133 5.200,180.600 5.200 C 178.067 5.200,176.400 5.359,176.400 5.600 C 176.400 5.833,175.067 6.000,173.200 6.000 C 171.333 6.000,170.000 6.167,170.000 6.400 C 170.000 6.622,168.933 6.800,167.600 6.800 C 166.267 6.800,165.200 6.978,165.200 7.200 C 165.200 7.420,164.221 7.600,163.024 7.600 C 161.827 7.600,160.736 7.780,160.600 8.000 C 160.464 8.220,159.681 8.400,158.860 8.400 C 158.040 8.400,156.331 8.670,155.065 9.000 C 153.798 9.330,152.330 9.600,151.804 9.600 C 151.278 9.600,150.736 9.780,150.600 10.000 C 150.464 10.220,149.654 10.400,148.800 10.400 C 147.946 10.400,147.136 10.580,147.000 10.800 C 146.864 11.020,146.223 11.200,145.576 11.200 C 144.929 11.200,144.400 11.380,144.400 11.600 C 144.400 11.820,143.860 12.000,143.200 12.000 C 142.540 12.000,142.000 12.180,142.000 12.400 C 142.000 12.620,141.471 12.800,140.824 12.800 C 140.177 12.800,139.536 12.980,139.400 13.200 C 139.264 13.420,138.634 13.600,138.000 13.600 C 137.366 13.600,136.736 13.780,136.600 14.000 C 136.464 14.220,135.823 14.400,135.176 14.400 C 134.529 14.400,134.000 14.580,134.000 14.800 C 134.000 15.020,133.651 15.200,133.224 15.200 C 132.797 15.200,132.336 15.380,132.200 15.600 C 132.064 15.820,131.513 16.000,130.976 16.000 C 130.439 16.000,130.000 16.180,130.000 16.400 C 130.000 16.620,129.638 16.800,129.195 16.800 C 128.752 16.800,128.032 16.980,127.595 17.200 C 127.158 17.420,126.442 17.780,126.005 18.000 C 125.568 18.220,124.938 18.400,124.605 18.400 C 124.272 18.400,124.000 18.580,124.000 18.800 C 124.000 19.020,123.561 19.200,123.024 19.200 C 122.487 19.200,121.936 19.380,121.800 19.600 C 121.664 19.820,121.203 20.000,120.776 20.000 C 120.349 20.000,120.000 20.180,120.000 20.400 C 120.000 20.620,119.640 20.800,119.200 20.800 C 118.760 20.800,118.400 20.980,118.400 21.200 C 118.400 21.420,118.040 21.600,117.600 21.600 C 117.160 21.600,116.800 21.780,116.800 22.000 C 116.800 22.220,116.440 22.400,116.000 22.400 C 115.560 22.400,115.200 22.580,115.200 22.800 C 115.200 23.020,114.851 23.200,114.424 23.200 C 113.997 23.200,113.536 23.380,113.400 23.600 C 113.264 23.820,112.803 24.000,112.376 24.000 C 111.949 24.000,111.600 24.180,111.600 24.400 C 111.600 24.620,111.390 24.800,111.134 24.800 C 110.388 24.800,107.600 26.123,107.600 26.477 C 107.600 26.655,107.240 26.800,106.800 26.800 C 106.360 26.800,106.000 26.980,106.000 27.200 C 106.000 27.420,105.640 27.600,105.200 27.600 C 104.760 27.600,104.400 27.780,104.400 28.000 C 104.400 28.220,104.055 28.400,103.633 28.400 C 103.212 28.400,102.807 28.535,102.733 28.700 C 102.660 28.865,101.745 29.433,100.700 29.963 C 99.655 30.492,98.800 31.077,98.800 31.263 C 98.800 31.448,98.440 31.600,98.000 31.600 C 97.560 31.600,97.200 31.780,97.200 32.000 C 97.200 32.220,96.930 32.400,96.600 32.400 C 96.270 32.400,96.000 32.580,96.000 32.800 C 96.000 33.020,95.730 33.200,95.400 33.200 C 95.070 33.200,94.800 33.380,94.800 33.600 C 94.800 33.820,94.530 34.000,94.200 34.000 C 93.870 34.000,93.600 34.180,93.600 34.400 C 93.600 34.620,93.330 34.800,93.000 34.800 C 92.670 34.800,92.400 34.980,92.400 35.200 C 92.400 35.420,92.130 35.600,91.800 35.600 C 91.470 35.600,91.200 35.780,91.200 36.000 C 91.200 36.220,90.880 36.400,90.488 36.400 C 90.097 36.400,89.517 36.760,89.200 37.200 C 88.883 37.640,88.343 38.000,88.000 38.000 C 87.657 38.000,87.117 38.360,86.800 38.800 C 86.483 39.240,85.993 39.600,85.712 39.600 C 85.430 39.600,85.200 39.780,85.200 40.000 C 85.200 40.220,84.970 40.400,84.688 40.400 C 84.407 40.400,83.917 40.760,83.600 41.200 C 83.283 41.640,82.780 42.000,82.482 42.000 C 81.778 42.000,76.224 46.153,74.331 48.094 C 73.524 48.922,72.654 49.600,72.400 49.600 C 72.146 49.600,71.246 50.320,70.400 51.200 C 69.554 52.080,68.656 52.800,68.403 52.800 C 67.814 52.800,48.000 72.646,48.000 73.236 C 48.000 73.480,47.504 74.156,46.899 74.740 C 46.293 75.323,45.316 76.430,44.727 77.200 C 44.138 77.970,43.104 79.230,42.429 80.000 C 41.754 80.770,41.201 81.537,41.201 81.704 C 41.200 81.871,40.660 82.572,40.000 83.263 C 39.340 83.954,38.800 84.722,38.800 84.971 C 38.800 85.220,38.440 85.683,38.000 86.000 C 37.560 86.317,37.200 86.825,37.200 87.128 C 37.200 87.431,36.660 88.183,36.000 88.800 C 35.340 89.417,34.800 90.169,34.800 90.472 C 34.800 90.775,34.440 91.283,34.000 91.600 C 33.560 91.917,33.200 92.407,33.200 92.688 C 33.200 92.970,33.020 93.200,32.800 93.200 C 32.580 93.200,32.400 93.470,32.400 93.800 C 32.400 94.130,32.220 94.400,32.000 94.400 C 31.780 94.400,31.600 94.670,31.600 95.000 C 31.600 95.330,31.441 95.600,31.247 95.600 C 31.052 95.600,30.793 95.915,30.671 96.300 C 30.383 97.209,29.188 99.153,28.300 100.158 C 27.915 100.594,27.600 101.187,27.600 101.475 C 27.600 101.764,27.452 102.000,27.270 102.000 C 26.913 102.000,24.800 106.350,24.800 107.085 C 24.800 107.332,24.665 107.593,24.500 107.667 C 24.124 107.834,22.825 109.964,22.529 110.900 C 22.407 111.285,22.148 111.600,21.953 111.600 C 21.759 111.600,21.600 111.870,21.600 112.200 C 21.600 112.530,21.420 112.800,21.200 112.800 C 20.980 112.800,20.800 113.160,20.800 113.600 C 20.800 114.040,20.620 114.400,20.400 114.400 C 20.180 114.400,20.000 114.760,20.000 115.200 C 20.000 115.640,19.820 116.000,19.600 116.000 C 19.380 116.000,19.200 116.360,19.200 116.800 C 19.200 117.240,19.020 117.600,18.800 117.600 C 18.580 117.600,18.400 117.872,18.400 118.205 C 18.400 118.538,18.220 119.168,18.000 119.605 C 17.780 120.042,17.420 120.758,17.200 121.195 C 16.980 121.632,16.800 122.262,16.800 122.595 C 16.800 122.928,16.620 123.200,16.400 123.200 C 16.180 123.200,16.000 123.560,16.000 124.000 C 16.000 124.440,15.820 124.800,15.600 124.800 C 15.380 124.800,15.200 125.160,15.200 125.600 C 15.200 126.040,15.020 126.400,14.800 126.400 C 14.580 126.400,14.400 126.672,14.400 127.005 C 14.400 127.593,14.233 128.018,13.262 129.895 C 13.008 130.387,12.800 131.152,12.800 131.595 C 12.800 132.038,12.653 132.400,12.472 132.400 C 12.292 132.400,11.896 133.311,11.593 134.425 C 11.290 135.539,10.897 136.540,10.721 136.649 C 10.544 136.758,10.400 137.287,10.400 137.824 C 10.400 138.361,10.220 138.800,10.000 138.800 C 9.780 138.800,9.600 139.329,9.600 139.976 C 9.600 140.623,9.437 141.254,9.237 141.377 C 9.038 141.500,8.751 142.500,8.600 143.600 C 8.449 144.700,8.162 145.700,7.963 145.823 C 7.763 145.946,7.600 146.577,7.600 147.224 C 7.600 147.871,7.420 148.400,7.200 148.400 C 6.980 148.400,6.800 149.030,6.800 149.800 C 6.800 150.570,6.620 151.200,6.400 151.200 C 6.180 151.200,6.000 151.920,6.000 152.800 C 6.000 153.680,5.820 154.400,5.600 154.400 C 5.380 154.400,5.200 155.120,5.200 156.000 C 5.200 156.880,5.020 157.600,4.800 157.600 C 4.580 157.600,4.400 158.320,4.400 159.200 C 4.400 160.080,4.220 160.800,4.000 160.800 C 3.780 160.800,3.600 161.610,3.600 162.600 C 3.600 163.590,3.420 164.400,3.200 164.400 C 2.978 164.400,2.800 165.467,2.800 166.800 C 2.800 168.133,2.622 169.200,2.400 169.200 C 2.178 169.200,2.000 170.267,2.000 171.600 C 2.000 172.933,1.822 174.000,1.600 174.000 C 1.376 174.000,1.200 175.107,1.200 176.520 C 1.200 178.003,0.994 179.246,0.700 179.540 C 0.311 179.929,0.200 185.485,0.200 204.600 C 0.200 223.714,0.311 229.271,0.700 229.660 C 1.014 229.974,1.200 231.313,1.200 233.256 C 1.200 234.959,1.380 236.464,1.600 236.600 C 1.820 236.736,2.000 237.737,2.000 238.824 C 2.000 239.911,2.180 240.800,2.400 240.800 C 2.620 240.800,2.800 241.700,2.800 242.800 C 2.800 243.900,2.980 244.800,3.200 244.800 C 3.420 244.800,3.600 245.700,3.600 246.800 C 3.600 247.900,3.780 248.800,4.000 248.800 C 4.220 248.800,4.400 249.700,4.400 250.800 C 4.400 251.900,4.580 252.800,4.800 252.800 C 5.020 252.800,5.200 253.419,5.200 254.176 C 5.200 254.933,5.380 255.664,5.600 255.800 C 5.820 255.936,6.000 256.577,6.000 257.224 C 6.000 257.871,6.180 258.400,6.400 258.400 C 6.620 258.400,6.800 259.030,6.800 259.800 C 6.800 260.570,6.980 261.200,7.200 261.200 C 7.420 261.200,7.600 261.819,7.600 262.576 C 7.600 263.333,7.780 264.064,8.000 264.200 C 8.220 264.336,8.400 264.876,8.400 265.400 C 8.400 266.349,10.084 271.576,10.815 272.895 C 11.027 273.277,11.200 273.952,11.200 274.395 C 11.200 274.838,11.380 275.200,11.600 275.200 C 11.820 275.200,12.000 275.639,12.000 276.176 C 12.000 276.713,12.144 277.242,12.321 277.351 C 12.497 277.460,12.890 278.461,13.193 279.575 C 13.496 280.689,13.892 281.600,14.072 281.600 C 14.253 281.600,14.400 281.872,14.400 282.205 C 14.400 282.538,14.562 283.123,14.759 283.505 C 14.957 283.887,15.900 285.820,16.855 287.800 C 17.811 289.780,18.729 291.460,18.896 291.533 C 19.063 291.607,19.200 292.012,19.200 292.433 C 19.200 292.855,19.380 293.200,19.600 293.200 C 19.820 293.200,20.004 293.605,20.009 294.100 C 20.014 294.595,20.370 295.450,20.800 296.000 C 21.230 296.550,21.586 297.225,21.591 297.500 C 21.596 297.775,21.780 298.000,22.000 298.000 C 22.220 298.000,22.400 298.360,22.400 298.800 C 22.400 299.240,22.580 299.600,22.800 299.600 C 23.020 299.600,23.200 299.960,23.200 300.400 C 23.200 300.840,23.380 301.200,23.600 301.200 C 23.820 301.200,24.000 301.455,24.000 301.767 C 24.000 302.078,24.135 302.393,24.300 302.467 C 24.465 302.540,25.315 303.995,26.189 305.700 C 27.062 307.405,27.917 308.800,28.089 308.800 C 28.260 308.800,28.400 309.160,28.400 309.600 C 28.400 310.040,28.550 310.400,28.732 310.400 C 28.915 310.400,29.319 310.895,29.630 311.500 C 29.940 312.105,30.511 312.891,30.897 313.247 C 31.284 313.603,31.600 314.148,31.600 314.459 C 31.600 314.769,31.960 315.283,32.400 315.600 C 32.840 315.917,33.200 316.457,33.200 316.800 C 33.200 317.143,33.560 317.683,34.000 318.000 C 34.440 318.317,34.800 318.857,34.800 319.200 C 34.800 319.543,35.160 320.083,35.600 320.400 C 36.040 320.717,36.403 321.162,36.407 321.388 C 36.416 321.870,38.051 323.957,39.900 325.845 C 40.615 326.576,41.200 327.358,41.200 327.584 C 41.200 327.809,41.549 328.400,41.976 328.897 C 42.402 329.394,43.122 330.233,43.576 330.761 C 44.029 331.290,44.400 331.867,44.400 332.043 C 44.400 332.219,44.805 332.778,45.300 333.285 C 45.795 333.791,46.674 334.834,47.253 335.603 C 48.550 337.324,52.351 341.192,53.530 341.988 C 54.008 342.312,54.400 342.796,54.400 343.064 C 54.400 343.947,69.495 358.494,70.670 358.743 C 71.042 358.822,72.019 359.587,72.842 360.443 C 73.664 361.300,74.486 362.001,74.669 362.003 C 74.851 362.004,75.720 362.716,76.600 363.583 C 77.480 364.451,78.353 365.170,78.540 365.180 C 78.726 365.191,79.356 365.695,79.940 366.300 C 80.523 366.905,81.495 367.655,82.100 367.968 C 82.705 368.280,83.200 368.685,83.200 368.868 C 83.200 369.050,83.436 369.200,83.725 369.200 C 84.013 369.200,84.598 369.515,85.025 369.900 C 85.451 370.285,86.295 370.855,86.900 371.168 C 87.505 371.480,88.000 371.863,88.000 372.019 C 88.000 372.175,88.540 372.527,89.200 372.800 C 89.860 373.073,90.400 373.428,90.400 373.588 C 90.400 373.748,91.120 374.203,92.000 374.600 C 92.880 374.997,93.600 375.474,93.600 375.661 C 93.600 375.847,93.870 376.000,94.200 376.000 C 94.530 376.000,94.800 376.180,94.800 376.400 C 94.800 376.620,95.160 376.800,95.600 376.800 C 96.040 376.800,96.400 376.980,96.400 377.200 C 96.400 377.420,96.760 377.600,97.200 377.600 C 97.640 377.600,98.000 377.780,98.000 378.000 C 98.000 378.220,98.270 378.400,98.600 378.400 C 98.930 378.400,99.200 378.580,99.200 378.800 C 99.200 379.020,99.470 379.200,99.800 379.200 C 100.130 379.200,100.400 379.380,100.400 379.600 C 100.400 379.820,100.760 380.000,101.200 380.000 C 101.640 380.000,102.000 380.180,102.000 380.400 C 102.000 380.620,102.360 380.800,102.800 380.800 C 103.240 380.800,103.600 380.980,103.600 381.200 C 103.600 381.420,103.920 381.600,104.312 381.600 C 104.703 381.600,105.283 381.960,105.600 382.400 C 105.917 382.840,106.497 383.200,106.888 383.200 C 107.280 383.200,107.600 383.380,107.600 383.600 C 107.600 383.820,107.960 384.000,108.400 384.000 C 108.840 384.000,109.200 384.180,109.200 384.400 C 109.200 384.620,109.549 384.800,109.976 384.800 C 110.403 384.800,110.864 384.980,111.000 385.200 C 111.136 385.420,111.597 385.600,112.024 385.600 C 112.451 385.600,112.800 385.780,112.800 386.000 C 112.800 386.220,113.160 386.400,113.600 386.400 C 114.040 386.400,114.400 386.580,114.400 386.800 C 114.400 387.020,114.627 387.200,114.904 387.200 C 115.182 387.200,116.847 387.915,118.604 388.790 C 120.362 389.664,122.104 390.384,122.476 390.390 C 122.848 390.395,123.251 390.559,123.371 390.754 C 123.492 390.948,124.402 391.229,125.395 391.378 C 126.388 391.527,127.200 391.818,127.200 392.025 C 127.200 392.231,127.650 392.400,128.200 392.400 C 128.750 392.400,129.200 392.580,129.200 392.800 C 129.200 393.020,129.740 393.200,130.400 393.200 C 131.060 393.200,131.600 393.380,131.600 393.600 C 131.600 393.820,131.949 394.000,132.376 394.000 C 132.803 394.000,133.264 394.180,133.400 394.400 C 133.536 394.620,134.087 394.800,134.624 394.800 C 135.161 394.800,135.600 394.980,135.600 395.200 C 135.600 395.443,137.400 395.600,140.200 395.600 C 143.000 395.600,144.800 395.443,144.800 395.200 C 144.800 394.980,145.097 394.800,145.461 394.800 C 146.405 394.800,150.400 390.616,150.400 389.626 C 150.400 389.172,150.580 388.800,150.800 388.800 C 151.062 388.800,151.200 381.600,151.200 368.000 L 151.200 347.200 149.024 347.200 C 147.827 347.200,146.736 347.380,146.600 347.600 C 146.464 347.820,145.193 348.000,143.776 348.000 C 142.325 348.000,141.200 348.175,141.200 348.400 C 141.200 348.656,137.541 348.800,131.024 348.800 C 124.671 348.800,120.754 348.650,120.600 348.400 C 120.464 348.180,119.193 348.000,117.776 348.000 C 116.325 348.000,115.200 347.825,115.200 347.600 C 115.200 347.380,114.221 347.200,113.024 347.200 C 111.827 347.200,110.736 347.020,110.600 346.800 C 110.464 346.580,109.821 346.400,109.171 346.400 C 108.521 346.400,107.677 346.241,107.295 346.047 C 106.913 345.852,106.150 345.511,105.600 345.289 C 103.142 344.296,98.188 341.820,98.067 341.525 C 97.993 341.346,97.628 341.200,97.255 341.200 C 96.882 341.200,96.317 340.840,96.000 340.400 C 95.683 339.960,95.215 339.600,94.960 339.600 C 94.272 339.600,90.614 335.792,88.812 333.200 C 88.276 332.430,87.740 331.710,87.619 331.600 C 87.499 331.490,87.158 330.970,86.862 330.445 C 86.567 329.920,85.982 328.880,85.562 328.133 C 85.143 327.386,84.800 326.511,84.800 326.188 C 84.800 325.865,84.620 325.600,84.400 325.600 C 84.180 325.600,84.000 325.240,84.000 324.800 C 84.000 324.360,83.820 324.000,83.600 324.000 C 83.380 324.000,83.200 323.561,83.200 323.024 C 83.200 322.487,83.020 321.936,82.800 321.800 C 82.580 321.664,82.400 321.203,82.400 320.776 C 82.400 320.349,82.220 320.000,82.000 320.000 C 81.780 320.000,81.600 319.640,81.600 319.200 C 81.600 318.760,81.420 318.400,81.200 318.400 C 80.980 318.400,80.800 318.040,80.800 317.600 C 80.800 317.160,80.620 316.800,80.400 316.800 C 80.180 316.800,80.000 316.440,80.000 316.000 C 80.000 315.560,79.820 315.200,79.600 315.200 C 79.380 315.200,79.200 314.840,79.200 314.400 C 79.200 313.960,79.020 313.600,78.800 313.600 C 78.580 313.600,78.400 313.240,78.400 312.800 C 78.400 312.360,78.220 312.000,78.000 312.000 C 77.780 312.000,77.600 311.730,77.600 311.400 C 77.600 311.070,77.420 310.800,77.200 310.800 C 76.980 310.800,76.800 310.530,76.800 310.200 C 76.800 309.870,76.620 309.600,76.400 309.600 C 76.180 309.600,76.000 309.407,76.000 309.171 C 76.000 308.936,75.775 308.492,75.500 308.185 C 74.339 306.891,74.000 306.414,74.000 306.076 C 74.000 305.880,73.460 305.154,72.800 304.463 C 72.140 303.772,71.600 303.036,71.600 302.826 C 71.600 302.264,66.439 297.200,65.866 297.200 C 65.597 297.200,65.117 296.840,64.800 296.400 C 64.483 295.960,63.903 295.600,63.512 295.600 C 63.120 295.600,62.800 295.449,62.800 295.264 C 62.800 295.080,62.343 294.720,61.785 294.466 C 60.687 293.966,60.578 293.884,58.222 291.798 C 57.354 291.029,56.499 290.400,56.322 290.400 C 56.145 290.400,56.000 290.040,56.000 289.600 C 56.000 289.160,55.850 288.800,55.668 288.800 C 55.485 288.800,55.080 288.305,54.768 287.700 C 54.456 287.095,54.037 286.481,53.836 286.336 C 53.361 285.994,54.554 284.800,55.371 284.800 C 55.717 284.800,56.000 284.620,56.000 284.400 C 56.000 284.175,57.122 284.000,58.567 284.000 C 60.256 284.000,61.196 283.829,61.317 283.500 C 61.463 283.100,61.606 283.100,62.030 283.500 C 62.322 283.775,63.514 284.000,64.680 284.000 C 65.846 284.000,66.800 284.180,66.800 284.400 C 66.800 284.620,67.340 284.800,68.000 284.800 C 68.660 284.800,69.200 284.980,69.200 285.200 C 69.200 285.420,69.639 285.600,70.176 285.600 C 70.713 285.600,71.264 285.780,71.400 286.000 C 71.536 286.220,71.997 286.400,72.424 286.400 C 72.851 286.400,73.200 286.580,73.200 286.800 C 73.200 287.020,73.393 287.200,73.628 287.200 C 73.863 287.200,74.841 287.740,75.800 288.400 C 76.759 289.060,77.651 289.600,77.781 289.600 C 78.635 289.600,83.999 293.909,86.165 296.335 C 86.624 296.849,87.585 297.878,88.300 298.622 C 89.015 299.365,89.600 300.159,89.600 300.387 C 89.600 300.614,89.780 300.800,90.000 300.800 C 90.220 300.800,90.400 301.070,90.400 301.400 C 90.400 301.730,90.580 302.000,90.800 302.000 C 91.020 302.000,91.200 302.270,91.200 302.600 C 91.200 302.930,91.359 303.200,91.553 303.200 C 91.748 303.200,92.006 303.515,92.128 303.900 C 92.484 305.027,94.141 307.745,94.900 308.447 C 95.285 308.803,95.600 309.306,95.600 309.565 C 95.600 310.284,105.436 320.000,106.164 320.000 C 106.514 320.000,106.800 320.158,106.800 320.351 C 106.800 320.545,107.340 320.927,108.000 321.200 C 108.660 321.473,109.200 321.811,109.200 321.951 C 109.200 322.090,109.785 322.444,110.500 322.736 C 113.303 323.881,113.827 324.107,114.562 324.489 C 114.981 324.706,116.736 324.981,118.462 325.099 C 120.188 325.218,121.600 325.469,121.600 325.657 C 121.600 325.846,123.310 326.000,125.400 326.000 C 127.490 326.000,129.200 325.848,129.200 325.661 C 129.200 325.475,131.747 325.214,134.861 325.081 C 137.974 324.948,140.710 324.650,140.941 324.419 C 141.171 324.189,141.853 324.000,142.456 324.000 C 143.059 324.000,143.664 323.820,143.800 323.600 C 143.936 323.380,144.577 323.200,145.224 323.200 C 145.871 323.200,146.400 323.020,146.400 322.800 C 146.400 322.580,146.839 322.400,147.376 322.400 C 147.913 322.400,148.464 322.220,148.600 322.000 C 148.736 321.780,149.197 321.600,149.624 321.600 C 150.051 321.600,150.400 321.441,150.400 321.247 C 150.400 321.052,150.760 320.799,151.200 320.684 C 151.852 320.514,152.000 320.138,152.000 318.661 C 152.000 317.663,152.180 316.736,152.400 316.600 C 152.620 316.464,152.800 315.564,152.800 314.600 C 152.800 313.636,152.980 312.736,153.200 312.600 C 153.420 312.464,153.600 311.913,153.600 311.376 C 153.600 310.839,153.780 310.400,154.000 310.400 C 154.220 310.400,154.400 310.038,154.400 309.595 C 154.400 309.152,154.580 308.432,154.800 307.995 C 155.020 307.558,155.380 306.842,155.600 306.405 C 155.820 305.968,156.000 305.437,156.000 305.225 C 156.000 305.014,156.517 304.066,157.150 303.120 C 157.782 302.174,158.424 300.995,158.577 300.500 C 158.729 300.005,159.022 299.600,159.227 299.600 C 159.432 299.600,159.600 299.346,159.600 299.035 C 159.600 298.724,160.680 297.373,162.000 296.032 C 165.235 292.747,164.784 292.000,159.564 292.000 C 158.290 292.000,157.136 291.820,157.000 291.600 C 156.864 291.380,155.503 291.200,153.976 291.200 C 152.392 291.200,151.200 291.028,151.200 290.800 C 151.200 290.580,150.300 290.400,149.200 290.400 C 148.100 290.400,147.200 290.220,147.200 290.000 C 147.200 289.780,146.300 289.600,145.200 289.600 C 144.100 289.600,143.200 289.420,143.200 289.200 C 143.200 288.980,142.480 288.800,141.600 288.800 C 140.720 288.800,140.000 288.620,140.000 288.400 C 140.000 288.180,139.291 288.000,138.424 288.000 C 137.557 288.000,136.736 287.820,136.600 287.600 C 136.464 287.380,135.823 287.200,135.176 287.200 C 134.529 287.200,134.000 287.020,134.000 286.800 C 134.000 286.580,133.460 286.400,132.800 286.400 C 132.140 286.400,131.600 286.220,131.600 286.000 C 131.600 285.780,131.060 285.600,130.400 285.600 C 129.740 285.600,129.200 285.420,129.200 285.200 C 129.200 284.980,128.851 284.800,128.424 284.800 C 127.997 284.800,127.536 284.620,127.400 284.400 C 127.264 284.180,126.713 284.000,126.176 284.000 C 125.639 284.000,125.200 283.820,125.200 283.600 C 125.200 283.380,124.840 283.200,124.400 283.200 C 123.960 283.200,123.600 283.020,123.600 282.800 C 123.600 282.580,123.251 282.400,122.824 282.400 C 122.397 282.400,121.936 282.220,121.800 282.000 C 121.664 281.780,121.203 281.600,120.776 281.600 C 120.349 281.600,120.000 281.420,120.000 281.200 C 120.000 280.980,119.640 280.800,119.200 280.800 C 118.760 280.800,118.400 280.620,118.400 280.400 C 118.400 280.180,118.040 280.000,117.600 280.000 C 117.160 280.000,116.800 279.820,116.800 279.600 C 116.800 279.380,116.440 279.200,116.000 279.200 C 115.560 279.200,115.200 279.020,115.200 278.800 C 115.200 278.580,115.025 278.400,114.812 278.400 C 114.598 278.400,113.053 277.590,111.378 276.600 C 109.704 275.610,108.169 274.800,107.967 274.800 C 107.765 274.800,107.600 274.650,107.600 274.468 C 107.600 274.285,107.105 273.880,106.500 273.568 C 105.895 273.255,104.923 272.505,104.340 271.900 C 103.756 271.295,103.092 270.800,102.864 270.800 C 102.212 270.800,91.727 260.229,91.420 259.263 C 91.269 258.788,90.990 258.400,90.800 258.400 C 90.610 258.400,90.347 258.062,90.216 257.649 C 90.084 257.236,89.533 256.381,88.989 255.749 C 88.446 255.117,88.001 254.375,88.000 254.100 C 88.000 253.825,87.820 253.600,87.600 253.600 C 87.380 253.600,87.200 253.255,87.200 252.833 C 87.200 252.412,87.065 252.007,86.900 251.933 C 86.524 251.766,85.225 249.636,84.929 248.700 C 84.807 248.315,84.548 248.000,84.353 248.000 C 84.159 248.000,84.000 247.550,84.000 247.000 C 84.000 246.450,83.820 246.000,83.600 246.000 C 83.380 246.000,83.200 245.766,83.200 245.480 C 83.200 244.744,82.259 242.807,81.900 242.803 C 81.735 242.801,81.600 242.451,81.600 242.024 C 81.600 241.597,81.420 241.136,81.200 241.000 C 80.980 240.864,80.800 240.313,80.800 239.776 C 80.800 239.239,80.620 238.800,80.400 238.800 C 80.180 238.800,80.000 238.260,80.000 237.600 C 80.000 236.940,79.820 236.400,79.600 236.400 C 79.380 236.400,79.200 235.860,79.200 235.200 C 79.200 234.540,79.020 234.000,78.800 234.000 C 78.580 234.000,78.400 233.460,78.400 232.800 C 78.400 232.140,78.220 231.600,78.000 231.600 C 77.780 231.600,77.600 230.981,77.600 230.224 C 77.600 229.467,77.420 228.736,77.200 228.600 C 76.980 228.464,76.800 227.733,76.800 226.976 C 76.800 226.219,76.620 225.600,76.400 225.600 C 76.180 225.600,76.000 224.880,76.000 224.000 C 76.000 223.120,75.848 222.400,75.662 222.400 C 75.476 222.400,75.113 220.105,74.855 217.300 C 74.597 214.495,74.184 210.130,73.938 207.600 C 73.360 201.663,73.355 188.709,73.929 184.600 C 74.175 182.840,74.606 179.749,74.888 177.731 C 75.170 175.712,75.535 173.927,75.700 173.764 C 75.865 173.600,76.000 173.057,76.000 172.557 C 76.000 172.057,76.180 171.536,76.400 171.400 C 76.620 171.264,76.800 170.724,76.800 170.200 C 76.800 169.676,76.980 169.136,77.200 169.000 C 77.420 168.864,77.600 168.324,77.600 167.800 C 77.600 167.276,77.780 166.736,78.000 166.600 C 78.220 166.464,78.400 165.913,78.400 165.376 C 78.400 164.839,78.580 164.400,78.800 164.400 C 79.020 164.400,79.200 164.040,79.200 163.600 C 79.200 163.160,79.380 162.800,79.600 162.800 C 79.820 162.800,80.000 162.451,80.000 162.024 C 80.000 161.597,80.180 161.136,80.400 161.000 C 80.620 160.864,80.800 160.380,80.800 159.923 C 80.800 159.467,81.129 158.803,81.530 158.447 C 81.932 158.091,82.516 157.215,82.828 156.500 C 83.140 155.785,83.531 155.200,83.698 155.200 C 83.864 155.200,84.000 154.840,84.000 154.400 C 84.000 153.960,84.150 153.600,84.332 153.600 C 84.515 153.600,84.919 153.105,85.230 152.500 C 85.540 151.895,86.111 151.109,86.497 150.753 C 86.884 150.397,87.200 149.901,87.200 149.649 C 87.200 149.398,87.740 148.628,88.400 147.937 C 89.060 147.246,89.600 146.520,89.600 146.322 C 89.600 146.125,90.005 145.524,90.500 144.986 C 93.221 142.032,93.200 142.070,93.200 140.014 C 93.200 138.906,93.020 138.000,92.800 138.000 C 92.580 138.000,92.400 137.460,92.400 136.800 C 92.400 136.140,92.245 135.600,92.056 135.600 C 91.867 135.600,91.500 134.295,91.240 132.700 C 90.981 131.105,90.572 128.720,90.331 127.400 C 89.763 124.282,89.766 110.894,90.336 107.800 C 90.579 106.480,90.988 103.915,91.246 102.100 C 91.503 100.285,91.868 98.800,92.057 98.800 C 92.246 98.800,92.400 98.080,92.400 97.200 C 92.400 96.320,92.580 95.600,92.800 95.600 C 93.020 95.600,93.200 95.060,93.200 94.400 C 93.200 93.740,93.380 93.200,93.600 93.200 C 93.820 93.200,94.000 92.750,94.000 92.200 C 94.000 91.650,94.180 91.200,94.400 91.200 C 94.620 91.200,94.801 90.705,94.803 90.100 C 94.805 89.298,95.098 88.865,95.883 88.500 C 97.182 87.897,104.400 87.812,104.400 88.400 C 104.400 88.620,105.109 88.800,105.976 88.800 C 106.843 88.800,107.664 88.980,107.800 89.200 C 107.936 89.420,108.566 89.600,109.200 89.600 C 109.834 89.600,110.464 89.780,110.600 90.000 C 110.736 90.220,111.276 90.400,111.800 90.400 C 112.324 90.400,112.851 90.559,112.971 90.754 C 113.092 90.948,114.002 91.229,114.995 91.378 C 115.988 91.527,116.800 91.818,116.800 92.025 C 116.800 92.231,117.340 92.400,118.000 92.400 C 118.660 92.400,119.200 92.580,119.200 92.800 C 119.200 93.020,119.560 93.200,120.000 93.200 C 120.440 93.200,120.800 93.380,120.800 93.600 C 120.800 93.820,121.160 94.000,121.600 94.000 C 122.040 94.000,122.400 94.180,122.400 94.400 C 122.400 94.620,122.940 94.800,123.600 94.800 C 124.260 94.800,124.800 94.980,124.800 95.200 C 124.800 95.420,125.160 95.600,125.600 95.600 C 126.040 95.600,126.400 95.780,126.400 96.000 C 126.400 96.220,126.749 96.400,127.176 96.400 C 127.603 96.400,128.064 96.580,128.200 96.800 C 128.336 97.020,128.797 97.200,129.224 97.200 C 129.651 97.200,130.000 97.380,130.000 97.600 C 130.000 97.820,130.360 98.000,130.800 98.000 C 131.240 98.000,131.600 98.180,131.600 98.400 C 131.600 98.620,131.945 98.800,132.367 98.800 C 132.788 98.800,133.193 98.935,133.267 99.100 C 133.387 99.370,135.489 100.578,137.897 101.760 C 138.390 102.002,138.795 102.335,138.797 102.500 C 138.799 102.665,139.160 102.800,139.600 102.800 C 140.040 102.800,140.400 102.950,140.400 103.132 C 140.400 103.315,140.892 103.720,141.494 104.032 C 142.096 104.345,142.911 104.870,143.305 105.200 C 144.118 105.881,146.375 107.268,148.300 108.271 C 149.421 108.855,149.970 108.887,152.300 108.507 C 154.826 108.095,155.748 107.888,160.100 106.759 C 161.035 106.516,162.745 106.230,163.900 106.122 C 165.055 106.014,166.000 105.763,166.000 105.563 C 166.000 105.363,166.979 105.200,168.176 105.200 C 169.373 105.200,170.464 105.020,170.600 104.800 C 170.736 104.580,171.816 104.400,173.000 104.400 C 174.184 104.400,175.264 104.220,175.400 104.000 C 175.537 103.779,177.337 103.600,179.424 103.600 C 181.560 103.600,183.200 103.434,183.200 103.217 C 183.200 102.884,193.021 102.415,200.000 102.415 C 206.979 102.415,216.800 102.884,216.800 103.217 C 216.800 103.434,218.440 103.600,220.576 103.600 C 222.663 103.600,224.463 103.779,224.600 104.000 C 224.736 104.220,225.816 104.400,227.000 104.400 C 228.184 104.400,229.264 104.580,229.400 104.800 C 229.536 105.020,230.627 105.200,231.824 105.200 C 233.021 105.200,234.000 105.363,234.000 105.563 C 234.000 105.763,234.945 106.014,236.100 106.122 C 237.255 106.230,238.965 106.516,239.900 106.759 C 244.249 107.887,245.172 108.094,247.678 108.504 C 250.347 108.940,253.600 108.190,253.600 107.139 C 253.600 106.953,253.790 106.800,254.022 106.800 C 254.531 106.800,259.344 103.593,259.533 103.128 C 259.607 102.947,260.012 102.800,260.433 102.800 C 260.855 102.800,261.200 102.620,261.200 102.400 C 261.200 102.180,261.560 102.000,262.000 102.000 C 262.440 102.000,262.800 101.820,262.800 101.600 C 262.800 101.380,263.160 101.200,263.600 101.200 C 264.040 101.200,264.400 101.020,264.400 100.800 C 264.400 100.580,264.636 100.400,264.925 100.400 C 265.213 100.400,265.836 100.040,266.308 99.600 C 266.780 99.160,267.444 98.800,267.783 98.800 C 268.122 98.800,268.400 98.620,268.400 98.400 C 268.400 98.180,268.760 98.000,269.200 98.000 C 269.640 98.000,270.000 97.820,270.000 97.600 C 270.000 97.380,270.360 97.200,270.800 97.200 C 271.240 97.200,271.600 97.020,271.600 96.800 C 271.600 96.580,271.960 96.400,272.400 96.400 C 272.840 96.400,273.200 96.220,273.200 96.000 C 273.200 95.780,273.650 95.600,274.200 95.600 C 274.750 95.600,275.200 95.420,275.200 95.200 C 275.200 94.980,275.560 94.800,276.000 94.800 C 276.440 94.800,276.800 94.620,276.800 94.400 C 276.800 94.180,277.160 94.000,277.600 94.000 C 278.040 94.000,278.400 93.820,278.400 93.600 C 278.400 93.380,278.940 93.200,279.600 93.200 C 280.260 93.200,280.800 93.020,280.800 92.800 C 280.800 92.580,281.160 92.400,281.600 92.400 C 282.040 92.400,282.400 92.231,282.400 92.025 C 282.400 91.818,283.212 91.527,284.205 91.378 C 285.198 91.229,286.108 90.948,286.229 90.754 C 286.349 90.559,286.876 90.400,287.400 90.400 C 287.924 90.400,288.464 90.220,288.600 90.000 C 288.736 89.780,289.366 89.600,290.000 89.600 C 290.634 89.600,291.264 89.420,291.400 89.200 C 291.536 88.980,292.357 88.800,293.224 88.800 C 294.091 88.800,294.800 88.620,294.800 88.400 C 294.800 88.159,296.473 88.000,299.018 88.000 C 303.578 88.000,305.200 88.730,305.200 90.782 C 305.200 91.232,305.380 91.600,305.600 91.600 C 305.820 91.600,306.000 92.140,306.000 92.800 C 306.000 93.460,306.180 94.000,306.400 94.000 C 306.620 94.000,306.800 94.540,306.800 95.200 C 306.800 95.860,306.980 96.400,307.200 96.400 C 307.420 96.400,307.600 97.120,307.600 98.000 C 307.600 98.880,307.752 99.600,307.939 99.600 C 308.125 99.600,308.502 100.995,308.776 102.700 C 309.050 104.405,309.459 106.970,309.686 108.400 C 310.216 111.748,310.219 124.228,309.690 127.600 C 308.916 132.531,308.237 135.600,307.919 135.600 C 307.743 135.600,307.600 136.140,307.600 136.800 C 307.600 137.460,307.420 138.000,307.200 138.000 C 306.351 138.000,306.753 141.988,307.700 142.959 C 309.181 144.479,310.306 145.877,310.822 146.841 C 311.089 147.341,311.644 148.110,312.054 148.550 C 312.464 148.991,312.800 149.521,312.800 149.729 C 312.800 149.936,313.116 150.397,313.503 150.753 C 313.889 151.109,314.460 151.895,314.770 152.500 C 315.081 153.105,315.485 153.600,315.668 153.600 C 315.850 153.600,316.000 153.960,316.000 154.400 C 316.000 154.840,316.136 155.200,316.302 155.200 C 316.469 155.200,316.860 155.785,317.172 156.500 C 317.484 157.215,318.068 158.091,318.470 158.447 C 318.871 158.803,319.200 159.568,319.200 160.147 C 319.200 160.726,319.380 161.200,319.600 161.200 C 319.820 161.200,320.000 161.560,320.000 162.000 C 320.000 162.440,320.180 162.800,320.400 162.800 C 320.620 162.800,320.800 163.160,320.800 163.600 C 320.800 164.040,320.980 164.400,321.200 164.400 C 321.420 164.400,321.600 164.839,321.600 165.376 C 321.600 165.913,321.780 166.464,322.000 166.600 C 322.220 166.736,322.400 167.276,322.400 167.800 C 322.400 168.324,322.580 168.864,322.800 169.000 C 323.020 169.136,323.200 169.687,323.200 170.224 C 323.200 170.761,323.380 171.200,323.600 171.200 C 323.820 171.200,324.000 171.704,324.000 172.320 C 324.000 172.936,324.163 173.611,324.361 173.820 C 324.560 174.029,324.804 175.010,324.903 176.000 C 325.003 176.990,325.299 179.240,325.561 181.000 C 326.725 188.807,326.874 190.956,326.679 197.200 C 326.434 205.088,325.802 213.385,325.221 216.355 C 324.990 217.540,324.800 219.385,324.800 220.455 C 324.800 221.525,324.620 222.400,324.400 222.400 C 324.180 222.400,324.000 223.109,324.000 223.976 C 324.000 224.843,323.820 225.664,323.600 225.800 C 323.380 225.936,323.200 226.566,323.200 227.200 C 323.200 227.834,323.020 228.464,322.800 228.600 C 322.580 228.736,322.400 229.467,322.400 230.224 C 322.400 230.981,322.220 231.600,322.000 231.600 C 321.780 231.600,321.600 232.140,321.600 232.800 C 321.600 233.460,321.420 234.000,321.200 234.000 C 320.980 234.000,320.800 234.540,320.800 235.200 C 320.800 235.860,320.620 236.400,320.400 236.400 C 320.180 236.400,320.000 236.940,320.000 237.600 C 320.000 238.260,319.820 238.800,319.600 238.800 C 319.380 238.800,319.200 239.340,319.200 240.000 C 319.200 240.660,319.020 241.200,318.800 241.200 C 318.580 241.200,318.400 241.560,318.400 242.000 C 318.400 242.440,318.220 242.800,318.000 242.800 C 317.780 242.800,317.600 243.160,317.600 243.600 C 317.600 244.040,317.420 244.400,317.200 244.400 C 316.980 244.400,316.800 244.749,316.800 245.176 C 316.800 245.603,316.620 246.064,316.400 246.200 C 316.180 246.336,316.000 246.797,316.000 247.224 C 316.000 247.651,315.820 248.000,315.600 248.000 C 315.380 248.000,315.200 248.360,315.200 248.800 C 315.200 249.240,315.055 249.600,314.879 249.600 C 314.702 249.600,314.117 250.497,313.579 251.594 C 313.040 252.690,312.465 253.590,312.300 253.594 C 312.135 253.597,312.000 253.894,312.000 254.253 C 312.000 254.612,311.667 255.197,311.259 255.553 C 310.852 255.909,310.219 256.740,309.854 257.400 C 309.489 258.060,308.967 258.945,308.695 259.367 C 307.964 260.501,298.466 270.000,298.063 270.000 C 297.874 270.000,297.154 270.540,296.463 271.200 C 295.772 271.860,295.026 272.400,294.804 272.400 C 294.582 272.400,294.400 272.580,294.400 272.800 C 294.400 273.020,294.212 273.200,293.983 273.200 C 293.754 273.200,293.190 273.551,292.729 273.980 C 292.269 274.409,291.241 275.066,290.446 275.439 C 289.651 275.813,288.910 276.230,288.800 276.367 C 288.690 276.504,287.340 277.234,285.800 277.988 C 284.260 278.743,282.522 279.684,281.938 280.080 C 281.354 280.476,280.589 280.800,280.238 280.800 C 279.887 280.800,279.600 280.980,279.600 281.200 C 279.600 281.420,279.347 281.600,279.038 281.600 C 278.372 281.600,275.059 283.268,274.867 283.700 C 274.793 283.865,274.208 284.000,273.567 284.000 C 272.925 284.000,272.400 284.180,272.400 284.400 C 272.400 284.620,271.961 284.800,271.424 284.800 C 270.887 284.800,270.336 284.980,270.200 285.200 C 270.064 285.420,269.603 285.600,269.176 285.600 C 268.749 285.600,268.400 285.780,268.400 286.000 C 268.400 286.220,267.770 286.400,267.000 286.400 C 266.230 286.400,265.600 286.580,265.600 286.800 C 265.600 287.020,265.071 287.200,264.424 287.200 C 263.777 287.200,263.136 287.380,263.000 287.600 C 262.864 287.820,262.133 288.000,261.376 288.000 C 260.619 288.000,260.000 288.180,260.000 288.400 C 260.000 288.620,259.100 288.800,258.000 288.800 C 256.900 288.800,256.000 288.980,256.000 289.200 C 256.000 289.420,255.280 289.600,254.400 289.600 C 253.520 289.600,252.800 289.780,252.800 290.000 C 252.800 290.220,251.911 290.400,250.824 290.400 C 249.737 290.400,248.736 290.580,248.600 290.800 C 248.464 291.020,247.103 291.200,245.576 291.200 C 243.992 291.200,242.800 291.372,242.800 291.600 C 242.800 291.825,241.675 292.000,240.226 292.000 C 235.216 292.000,234.671 292.747,237.600 295.600 C 238.700 296.671,239.600 297.758,239.600 298.014 C 239.600 298.270,240.140 298.983,240.800 299.600 C 241.460 300.217,242.013 300.964,242.029 301.260 C 242.045 301.557,242.403 302.340,242.825 303.000 C 243.246 303.660,243.699 304.470,243.832 304.800 C 244.535 306.552,244.928 307.469,245.247 308.095 C 245.441 308.477,245.600 309.152,245.600 309.595 C 245.600 310.038,245.780 310.400,246.000 310.400 C 246.220 310.400,246.400 310.940,246.400 311.600 C 246.400 312.260,246.580 312.800,246.800 312.800 C 247.020 312.800,247.200 313.599,247.200 314.576 C 247.200 315.553,247.380 316.464,247.600 316.600 C 247.820 316.736,248.000 317.816,248.000 319.000 C 248.000 320.184,248.180 321.264,248.400 321.400 C 248.661 321.562,248.800 333.063,248.800 354.600 C 248.800 376.137,248.939 387.638,249.200 387.800 C 249.420 387.936,249.600 388.399,249.600 388.829 C 249.600 390.347,253.303 394.800,254.566 394.800 C 254.889 394.800,255.264 394.980,255.400 395.200 C 255.540 395.427,257.537 395.600,260.024 395.600 C 262.675 395.600,264.400 395.442,264.400 395.200 C 264.400 394.980,264.839 394.800,265.376 394.800 C 265.913 394.800,266.464 394.620,266.600 394.400 C 266.736 394.180,267.197 394.000,267.624 394.000 C 268.051 394.000,268.400 393.820,268.400 393.600 C 268.400 393.380,268.940 393.200,269.600 393.200 C 270.260 393.200,270.800 393.020,270.800 392.800 C 270.800 392.580,271.250 392.400,271.800 392.400 C 272.350 392.400,272.800 392.243,272.800 392.051 C 272.800 391.859,273.528 391.586,274.417 391.444 C 275.307 391.301,276.342 391.029,276.717 390.839 C 277.093 390.649,277.850 390.318,278.400 390.103 C 278.950 389.889,280.182 389.328,281.138 388.857 C 282.094 388.386,283.129 388.000,283.438 388.000 C 283.747 388.000,284.000 387.820,284.000 387.600 C 284.000 387.380,284.360 387.200,284.800 387.200 C 285.240 387.200,285.600 387.020,285.600 386.800 C 285.600 386.580,285.960 386.400,286.400 386.400 C 286.840 386.400,287.200 386.220,287.200 386.000 C 287.200 385.780,287.560 385.600,288.000 385.600 C 288.440 385.600,288.800 385.420,288.800 385.200 C 288.800 384.980,289.250 384.800,289.800 384.800 C 290.350 384.800,290.800 384.620,290.800 384.400 C 290.800 384.180,291.160 384.000,291.600 384.000 C 292.040 384.000,292.400 383.820,292.400 383.600 C 292.400 383.380,292.720 383.200,293.112 383.200 C 293.503 383.200,294.083 382.840,294.400 382.400 C 294.717 381.960,295.297 381.600,295.688 381.600 C 296.080 381.600,296.400 381.420,296.400 381.200 C 296.400 380.980,296.760 380.800,297.200 380.800 C 297.640 380.800,298.000 380.620,298.000 380.400 C 298.000 380.180,298.360 380.000,298.800 380.000 C 299.240 380.000,299.600 379.820,299.600 379.600 C 299.600 379.380,299.870 379.200,300.200 379.200 C 300.530 379.200,300.800 379.020,300.800 378.800 C 300.800 378.580,301.070 378.400,301.400 378.400 C 301.730 378.400,302.000 378.220,302.000 378.000 C 302.000 377.780,302.360 377.600,302.800 377.600 C 303.240 377.600,303.600 377.420,303.600 377.200 C 303.600 376.980,303.960 376.800,304.400 376.800 C 304.840 376.800,305.200 376.620,305.200 376.400 C 305.200 376.180,305.470 376.000,305.800 376.000 C 306.130 376.000,306.402 375.865,306.405 375.700 C 306.407 375.535,307.127 375.056,308.005 374.636 C 308.882 374.215,309.600 373.732,309.600 373.563 C 309.600 373.393,309.938 373.147,310.351 373.016 C 310.764 372.884,311.619 372.333,312.251 371.789 C 312.883 371.246,313.625 370.801,313.900 370.800 C 314.175 370.800,314.400 370.650,314.400 370.468 C 314.400 370.285,314.895 369.881,315.500 369.570 C 316.105 369.260,316.891 368.689,317.247 368.303 C 317.603 367.916,318.116 367.600,318.386 367.600 C 318.657 367.600,319.383 367.060,320.000 366.400 C 320.617 365.740,321.275 365.200,321.463 365.200 C 321.651 365.200,322.569 364.480,323.503 363.600 C 324.437 362.720,325.305 362.000,325.432 362.000 C 325.559 362.000,326.354 361.280,327.200 360.400 C 328.046 359.520,328.994 358.800,329.308 358.800 C 330.245 358.800,345.600 343.971,345.600 343.066 C 345.600 342.797,345.984 342.312,346.453 341.988 C 347.845 341.029,351.743 337.109,352.805 335.600 C 353.348 334.830,354.288 333.678,354.896 333.041 C 355.503 332.403,356.000 331.728,356.000 331.542 C 356.000 331.355,356.630 330.534,357.400 329.718 C 358.170 328.901,358.800 327.995,358.800 327.703 C 358.800 327.412,359.385 326.576,360.100 325.845 C 361.949 323.957,363.584 321.870,363.593 321.388 C 363.597 321.162,363.960 320.717,364.400 320.400 C 364.840 320.083,365.200 319.543,365.200 319.200 C 365.200 318.857,365.560 318.317,366.000 318.000 C 366.440 317.683,366.800 317.143,366.800 316.800 C 366.800 316.457,367.160 315.917,367.600 315.600 C 368.040 315.283,368.400 314.769,368.400 314.459 C 368.400 314.148,368.716 313.603,369.103 313.247 C 369.489 312.891,370.060 312.105,370.370 311.500 C 370.681 310.895,371.085 310.400,371.268 310.400 C 371.450 310.400,371.600 310.055,371.600 309.633 C 371.600 309.212,371.735 308.807,371.900 308.733 C 372.383 308.518,374.774 304.441,375.042 303.376 C 375.176 302.839,375.447 302.400,375.643 302.400 C 375.840 302.400,376.000 302.130,376.000 301.800 C 376.000 301.470,376.180 301.200,376.400 301.200 C 376.620 301.200,376.800 300.840,376.800 300.400 C 376.800 299.960,376.980 299.600,377.200 299.600 C 377.420 299.600,377.600 299.240,377.600 298.800 C 377.600 298.360,377.747 298.000,377.926 298.000 C 378.392 298.000,380.000 294.869,380.000 293.962 C 380.000 293.543,380.180 293.200,380.400 293.200 C 380.620 293.200,380.800 292.855,380.800 292.433 C 380.800 292.012,380.937 291.607,381.104 291.533 C 381.271 291.460,382.189 289.780,383.145 287.800 C 384.100 285.820,385.043 283.887,385.241 283.505 C 385.438 283.123,385.600 282.538,385.600 282.205 C 385.600 281.872,385.747 281.600,385.928 281.600 C 386.108 281.600,386.504 280.689,386.807 279.575 C 387.110 278.461,387.503 277.460,387.679 277.351 C 387.856 277.242,388.000 276.713,388.000 276.176 C 388.000 275.639,388.180 275.200,388.400 275.200 C 388.620 275.200,388.800 274.838,388.800 274.395 C 388.800 273.952,388.959 273.277,389.153 272.895 C 389.348 272.513,389.729 271.660,390.000 271.000 C 390.271 270.340,390.644 269.501,390.828 269.135 C 391.012 268.769,391.285 267.550,391.434 266.426 C 391.583 265.302,391.862 264.285,392.053 264.167 C 392.244 264.049,392.400 263.333,392.400 262.576 C 392.400 261.819,392.580 261.200,392.800 261.200 C 393.020 261.200,393.200 260.570,393.200 259.800 C 393.200 259.030,393.380 258.400,393.600 258.400 C 393.820 258.400,394.000 257.871,394.000 257.224 C 394.000 256.577,394.180 255.936,394.400 255.800 C 394.620 255.664,394.800 254.933,394.800 254.176 C 394.800 253.419,394.980 252.800,395.200 252.800 C 395.420 252.800,395.600 251.900,395.600 250.800 C 395.600 249.700,395.780 248.800,396.000 248.800 C 396.220 248.800,396.400 247.900,396.400 246.800 C 396.400 245.700,396.580 244.800,396.800 244.800 C 397.020 244.800,397.200 243.900,397.200 242.800 C 397.200 241.700,397.380 240.800,397.600 240.800 C 397.820 240.800,398.000 239.911,398.000 238.824 C 398.000 237.737,398.180 236.736,398.400 236.600 C 398.620 236.464,398.800 234.959,398.800 233.256 C 398.800 231.313,398.986 229.974,399.300 229.660 C 399.689 229.271,399.800 223.715,399.800 204.600 C 399.800 185.485,399.689 179.929,399.300 179.540 C 399.006 179.246,398.800 178.003,398.800 176.520 C 398.800 175.107,398.624 174.000,398.400 174.000 C 398.178 174.000,398.000 172.933,398.000 171.600 C 398.000 170.267,397.822 169.200,397.600 169.200 C 397.378 169.200,397.200 168.133,397.200 166.800 C 397.200 165.467,397.022 164.400,396.800 164.400 C 396.580 164.400,396.400 163.590,396.400 162.600 C 396.400 161.610,396.220 160.800,396.000 160.800 C 395.780 160.800,395.600 160.080,395.600 159.200 C 395.600 158.320,395.420 157.600,395.200 157.600 C 394.980 157.600,394.800 156.880,394.800 156.000 C 394.800 155.120,394.620 154.400,394.400 154.400 C 394.180 154.400,394.000 153.680,394.000 152.800 C 394.000 151.920,393.820 151.200,393.600 151.200 C 393.380 151.200,393.200 150.570,393.200 149.800 C 393.200 149.030,393.020 148.400,392.800 148.400 C 392.580 148.400,392.400 147.871,392.400 147.224 C 392.400 146.577,392.233 145.944,392.028 145.817 C 391.823 145.691,391.533 144.600,391.382 143.394 C 391.231 142.187,390.949 141.200,390.754 141.200 C 390.559 141.200,390.400 140.660,390.400 140.000 C 390.400 139.340,390.220 138.800,390.000 138.800 C 389.780 138.800,389.600 138.438,389.600 137.995 C 389.600 137.552,389.420 136.832,389.200 136.395 C 388.980 135.958,388.620 135.242,388.400 134.805 C 388.180 134.368,388.000 133.648,388.000 133.205 C 388.000 132.762,387.820 132.400,387.600 132.400 C 387.380 132.400,387.200 132.038,387.200 131.595 C 387.200 131.152,387.020 130.432,386.800 129.995 C 386.580 129.558,386.220 128.842,386.000 128.405 C 385.780 127.968,385.600 127.338,385.600 127.005 C 385.600 126.672,385.420 126.400,385.200 126.400 C 384.980 126.400,384.800 126.040,384.800 125.600 C 384.800 125.160,384.620 124.800,384.400 124.800 C 384.180 124.800,384.000 124.440,384.000 124.000 C 384.000 123.560,383.820 123.200,383.600 123.200 C 383.380 123.200,383.200 122.840,383.200 122.400 C 383.200 121.960,383.020 121.600,382.800 121.600 C 382.580 121.600,382.400 121.161,382.400 120.624 C 382.400 120.087,382.220 119.536,382.000 119.400 C 381.780 119.264,381.600 118.803,381.600 118.376 C 381.600 117.949,381.420 117.600,381.200 117.600 C 380.980 117.600,380.800 117.240,380.800 116.800 C 380.800 116.360,380.620 116.000,380.400 116.000 C 380.180 116.000,380.000 115.640,380.000 115.200 C 380.000 114.760,379.864 114.400,379.698 114.400 C 379.531 114.400,379.141 113.815,378.830 113.100 C 378.519 112.385,378.160 111.710,378.032 111.600 C 377.646 111.267,376.366 109.047,376.129 108.300 C 376.007 107.915,375.748 107.600,375.553 107.600 C 375.359 107.600,375.200 107.284,375.200 106.897 C 375.200 106.234,373.370 102.432,372.843 102.000 C 372.709 101.890,372.344 101.305,372.032 100.700 C 371.720 100.095,371.315 99.600,371.132 99.600 C 370.950 99.600,370.800 99.322,370.800 98.983 C 370.800 98.644,370.440 97.980,370.000 97.508 C 369.560 97.036,369.200 96.413,369.200 96.125 C 369.200 95.836,369.020 95.600,368.800 95.600 C 368.580 95.600,368.400 95.330,368.400 95.000 C 368.400 94.670,368.220 94.400,368.000 94.400 C 367.780 94.400,367.600 94.130,367.600 93.800 C 367.600 93.470,367.420 93.200,367.200 93.200 C 366.980 93.200,366.800 92.970,366.800 92.688 C 366.800 92.407,366.440 91.917,366.000 91.600 C 365.560 91.283,365.200 90.775,365.200 90.472 C 365.200 90.169,364.660 89.417,364.000 88.800 C 363.340 88.183,362.800 87.431,362.800 87.128 C 362.800 86.825,362.440 86.317,362.000 86.000 C 361.560 85.683,361.200 85.220,361.200 84.971 C 361.200 84.722,360.660 83.954,360.000 83.263 C 359.340 82.572,358.800 81.844,358.800 81.645 C 358.800 81.193,355.964 77.706,353.700 75.373 C 352.765 74.409,352.000 73.437,352.000 73.211 C 352.000 72.646,332.159 52.800,331.593 52.800 C 331.342 52.800,330.446 52.080,329.600 51.200 C 328.754 50.320,327.854 49.600,327.600 49.600 C 327.346 49.600,326.476 48.922,325.669 48.094 C 323.922 46.303,318.244 42.000,317.626 42.000 C 317.388 42.000,316.628 41.460,315.937 40.800 C 315.246 40.140,314.478 39.600,314.229 39.600 C 313.980 39.600,313.517 39.240,313.200 38.800 C 312.883 38.360,312.343 38.000,312.000 38.000 C 311.657 38.000,311.117 37.640,310.800 37.200 C 310.483 36.760,309.903 36.400,309.512 36.400 C 309.120 36.400,308.800 36.220,308.800 36.000 C 308.800 35.780,308.612 35.600,308.383 35.600 C 308.154 35.600,307.580 35.240,307.108 34.800 C 306.636 34.360,306.013 34.000,305.725 34.000 C 305.436 34.000,305.200 33.820,305.200 33.600 C 305.200 33.380,304.930 33.200,304.600 33.200 C 304.270 33.200,304.000 33.020,304.000 32.800 C 304.000 32.580,303.730 32.400,303.400 32.400 C 303.070 32.400,302.800 32.220,302.800 32.000 C 302.800 31.780,302.440 31.600,302.000 31.600 C 301.560 31.600,301.200 31.448,301.200 31.263 C 301.200 31.077,300.345 30.492,299.300 29.963 C 298.255 29.433,297.340 28.865,297.267 28.700 C 297.193 28.535,296.788 28.400,296.367 28.400 C 295.945 28.400,295.600 28.220,295.600 28.000 C 295.600 27.780,295.240 27.600,294.800 27.600 C 294.360 27.600,294.000 27.420,294.000 27.200 C 294.000 26.980,293.640 26.800,293.200 26.800 C 292.760 26.800,292.400 26.665,292.400 26.499 C 292.400 26.334,291.275 25.692,289.900 25.072 C 288.525 24.452,287.087 23.778,286.705 23.573 C 286.323 23.368,285.738 23.200,285.405 23.200 C 285.072 23.200,284.800 23.020,284.800 22.800 C 284.800 22.580,284.440 22.400,284.000 22.400 C 283.560 22.400,283.200 22.220,283.200 22.000 C 283.200 21.780,282.840 21.600,282.400 21.600 C 281.960 21.600,281.600 21.420,281.600 21.200 C 281.600 20.980,281.240 20.800,280.800 20.800 C 280.360 20.800,280.000 20.620,280.000 20.400 C 280.000 20.180,279.651 20.000,279.224 20.000 C 278.797 20.000,278.336 19.820,278.200 19.600 C 278.064 19.380,277.513 19.200,276.976 19.200 C 276.439 19.200,276.000 19.020,276.000 18.800 C 276.000 18.580,275.728 18.400,275.395 18.400 C 274.807 18.400,274.382 18.233,272.505 17.262 C 272.013 17.008,271.248 16.800,270.805 16.800 C 270.362 16.800,270.000 16.620,270.000 16.400 C 270.000 16.180,269.561 16.000,269.024 16.000 C 268.487 16.000,267.936 15.820,267.800 15.600 C 267.664 15.380,267.203 15.200,266.776 15.200 C 266.349 15.200,266.000 15.020,266.000 14.800 C 266.000 14.580,265.471 14.400,264.824 14.400 C 264.177 14.400,263.536 14.220,263.400 14.000 C 263.264 13.780,262.634 13.600,262.000 13.600 C 261.366 13.600,260.736 13.420,260.600 13.200 C 260.464 12.980,259.924 12.800,259.400 12.800 C 258.876 12.800,258.336 12.620,258.200 12.400 C 258.064 12.180,257.524 12.000,257.000 12.000 C 256.476 12.000,255.936 11.820,255.800 11.600 C 255.664 11.380,255.034 11.200,254.400 11.200 C 253.766 11.200,253.136 11.020,253.000 10.800 C 252.864 10.580,252.054 10.400,251.200 10.400 C 250.346 10.400,249.536 10.220,249.400 10.000 C 249.264 9.780,248.722 9.600,248.196 9.600 C 247.670 9.600,246.202 9.330,244.935 9.000 C 243.669 8.670,241.950 8.400,241.116 8.400 C 240.282 8.400,239.600 8.220,239.600 8.000 C 239.600 7.778,238.533 7.600,237.200 7.600 C 235.867 7.600,234.800 7.422,234.800 7.200 C 234.800 6.978,233.733 6.800,232.400 6.800 C 231.067 6.800,230.000 6.622,230.000 6.400 C 230.000 6.167,228.667 6.000,226.800 6.000 C 224.933 6.000,223.600 5.833,223.600 5.600 C 223.600 5.359,221.933 5.200,219.400 5.200 C 216.867 5.200,215.200 5.041,215.200 4.800 C 215.200 4.540,209.867 4.400,200.000 4.400 C 190.133 4.400,184.800 4.540,184.800 4.800 " stroke="none" fill="#040404" fill-rule="evenodd"></path><path id="path1" d="" stroke="none" fill="#080404" fill-rule="evenodd"></path><path id="path2" d="" stroke="none" fill="#080404" fill-rule="evenodd"></path><path id="path3" d="" stroke="none" fill="#080404" fill-rule="evenodd"></path><path id="path4" d="" stroke="none" fill="#080404" fill-rule="evenodd"></path></g></svg>