<svg id="svg" version="1.1" xmlns="http://www.w3.org/2000/svg" xmlns:xlink="http://www.w3.org/1999/xlink" width="400" height="400" viewBox="0, 0, 400,400"><g id="svgg"><path id="path0" d="M27.019 0.294 C 26.369 0.390,25.610 0.768,25.332 1.134 C 25.053 1.500,24.817 1.620,24.807 1.400 C 24.796 1.180,24.613 1.270,24.400 1.600 C 24.142 2.000,24.010 2.033,24.006 1.700 C 24.003 1.425,23.809 1.200,23.576 1.200 C 23.343 1.200,23.264 1.380,23.400 1.600 C 23.547 1.838,23.071 2.000,22.224 2.000 C 21.201 2.000,20.800 2.176,20.800 2.624 C 20.800 2.967,20.620 3.136,20.401 3.000 C 19.916 2.701,18.296 3.763,18.669 4.136 C 18.814 4.281,18.453 4.400,17.867 4.400 C 17.280 4.400,16.800 4.580,16.800 4.800 C 16.800 5.020,16.536 5.200,16.214 5.200 C 15.586 5.200,14.679 6.545,15.054 6.920 C 15.178 7.044,14.901 7.047,14.440 6.926 C 13.667 6.724,13.393 7.087,13.553 8.100 C 13.633 8.608,12.877 8.431,12.695 7.900 C 12.596 7.612,12.185 7.952,11.727 8.699 C 11.289 9.413,10.815 9.882,10.675 9.742 C 10.534 9.601,10.136 9.721,9.791 10.008 C 9.331 10.389,9.289 10.608,9.634 10.821 C 9.947 11.015,9.817 11.204,9.247 11.385 C 8.775 11.535,8.492 11.825,8.618 12.029 C 8.744 12.233,8.522 12.414,8.124 12.432 C 7.704 12.450,7.610 12.548,7.900 12.665 C 8.434 12.880,8.603 13.632,8.100 13.553 C 7.087 13.393,6.724 13.667,6.926 14.440 C 7.047 14.901,7.044 15.178,6.920 15.054 C 6.545 14.679,5.200 15.586,5.200 16.214 C 5.200 16.536,5.020 16.800,4.800 16.800 C 4.580 16.800,4.400 17.280,4.400 17.867 C 4.400 18.453,4.281 18.814,4.136 18.669 C 3.763 18.296,2.701 19.916,3.000 20.401 C 3.136 20.620,2.945 20.800,2.575 20.800 C 1.993 20.800,1.976 20.892,2.451 21.477 C 2.824 21.937,2.840 22.057,2.500 21.853 C 2.151 21.643,2.000 21.869,2.000 22.600 C 2.000 23.196,1.828 23.541,1.600 23.400 C 1.380 23.264,1.200 23.343,1.200 23.576 C 1.200 23.809,1.425 24.003,1.700 24.006 C 2.033 24.010,2.000 24.142,1.600 24.400 C 1.270 24.613,1.180 24.796,1.400 24.807 C 1.620 24.817,1.515 25.045,1.166 25.313 C 0.341 25.948,-0.082 28.546,0.533 29.211 C 0.892 29.600,0.885 29.652,0.503 29.437 C 0.107 29.213,0.005 63.849,0.003 199.578 C 0.001 293.310,0.150 370.000,0.333 370.000 C 0.517 370.000,0.667 370.270,0.667 370.600 C 0.667 370.930,0.528 371.200,0.358 371.200 C -0.122 371.200,0.462 374.165,1.007 374.490 C 1.293 374.661,1.406 375.236,1.282 375.890 C 1.085 376.928,1.119 376.961,1.812 376.400 C 2.322 375.988,2.453 375.966,2.234 376.332 C 1.770 377.102,2.712 380.095,3.826 381.391 C 4.352 382.003,4.686 382.661,4.568 382.852 C 4.450 383.043,4.543 383.200,4.776 383.200 C 5.009 383.200,5.200 383.483,5.200 383.829 C 5.200 384.574,6.197 385.669,6.552 385.314 C 6.689 385.178,6.800 385.367,6.800 385.733 C 6.800 386.127,7.118 386.400,7.576 386.400 C 8.003 386.400,8.464 386.580,8.600 386.800 C 8.736 387.020,8.540 387.200,8.165 387.200 C 7.628 387.200,7.713 387.413,8.562 388.200 C 9.156 388.750,9.514 389.200,9.359 389.200 C 9.203 389.200,9.398 389.556,9.791 389.991 C 10.185 390.425,10.667 390.682,10.863 390.561 C 11.059 390.440,11.170 390.538,11.110 390.780 C 11.049 391.022,11.537 391.531,12.192 391.910 C 12.848 392.290,13.866 393.095,14.453 393.700 C 15.040 394.305,15.809 394.800,16.160 394.800 C 16.512 394.800,16.800 394.980,16.800 395.200 C 16.800 395.420,17.160 395.600,17.600 395.600 C 18.040 395.600,18.400 395.788,18.400 396.018 C 18.400 396.247,18.625 396.406,18.900 396.370 C 20.125 396.211,20.722 396.457,20.916 397.200 C 21.069 397.787,21.462 398.000,22.386 398.000 C 23.231 398.000,23.554 398.151,23.364 398.458 C 23.168 398.775,23.411 398.853,24.151 398.712 C 24.879 398.572,25.336 398.714,25.582 399.154 C 25.945 399.802,369.404 400.379,372.495 399.736 C 373.098 399.611,373.493 399.351,373.375 399.159 C 373.256 398.967,373.420 398.909,373.739 399.032 C 374.058 399.154,374.423 399.086,374.550 398.881 C 374.677 398.675,375.262 398.599,375.850 398.712 C 376.555 398.846,376.828 398.769,376.652 398.484 C 376.486 398.215,376.880 398.004,377.692 397.926 C 378.521 397.846,378.960 397.606,378.890 397.270 C 378.827 396.967,378.972 396.859,379.228 397.017 C 379.475 397.170,380.113 397.061,380.646 396.776 C 381.353 396.397,381.478 396.170,381.108 395.934 C 380.790 395.733,381.087 395.610,381.900 395.606 C 382.615 395.603,383.200 395.420,383.200 395.200 C 383.200 394.980,383.478 394.800,383.818 394.800 C 384.556 394.800,386.117 393.315,386.541 392.210 C 386.794 391.549,386.903 391.517,387.215 392.011 C 387.467 392.410,387.590 392.438,387.594 392.100 C 387.597 391.825,387.796 391.600,388.036 391.600 C 388.664 391.600,391.600 388.731,391.600 388.118 C 391.600 387.833,391.825 387.597,392.100 387.594 C 392.438 387.590,392.410 387.467,392.011 387.215 C 391.517 386.903,391.549 386.794,392.210 386.541 C 393.315 386.117,394.800 384.556,394.800 383.818 C 394.800 383.478,394.980 383.200,395.200 383.200 C 395.420 383.200,395.600 382.772,395.600 382.249 C 395.600 381.726,395.976 381.048,396.437 380.742 C 396.905 380.431,397.301 379.706,397.337 379.094 C 397.371 378.492,397.535 378.000,397.700 378.000 C 397.865 378.000,398.000 377.629,398.000 377.176 C 398.000 376.686,398.176 376.461,398.435 376.621 C 398.713 376.793,398.822 376.535,398.739 375.901 C 398.668 375.356,398.807 374.661,399.049 374.356 C 399.674 373.564,400.069 371.200,399.576 371.200 C 399.308 371.200,399.313 370.936,399.589 370.420 C 400.379 368.945,399.946 26.025,399.154 25.582 C 398.714 25.336,398.572 24.879,398.712 24.151 C 398.853 23.411,398.775 23.168,398.458 23.364 C 398.159 23.549,398.000 23.285,398.000 22.600 C 398.000 22.012,397.827 21.660,397.605 21.797 C 397.378 21.937,397.311 21.777,397.447 21.421 C 397.602 21.018,397.459 20.800,397.043 20.800 C 396.457 20.800,396.242 20.256,396.293 18.900 C 396.303 18.625,396.151 18.400,395.956 18.400 C 395.760 18.400,395.600 18.040,395.600 17.600 C 395.600 17.160,395.420 16.800,395.200 16.800 C 394.980 16.800,394.800 16.512,394.800 16.160 C 394.800 15.809,394.260 15.017,393.600 14.400 C 392.940 13.783,392.400 13.081,392.400 12.840 C 392.400 12.598,392.241 12.400,392.047 12.400 C 391.852 12.400,391.594 12.022,391.474 11.560 C 391.334 11.025,391.076 10.829,390.765 11.022 C 390.476 11.201,390.379 11.157,390.529 10.915 C 390.668 10.691,390.425 10.185,389.991 9.791 C 389.556 9.398,389.200 9.203,389.200 9.359 C 389.200 9.514,388.750 9.156,388.200 8.562 C 387.413 7.713,387.200 7.628,387.200 8.165 C 387.200 8.540,387.020 8.736,386.800 8.600 C 386.580 8.464,386.400 8.003,386.400 7.576 C 386.400 7.118,386.127 6.800,385.733 6.800 C 385.367 6.800,385.178 6.689,385.314 6.552 C 385.669 6.197,384.574 5.200,383.829 5.200 C 383.483 5.200,383.200 5.009,383.200 4.776 C 383.200 4.543,383.043 4.450,382.852 4.568 C 382.660 4.687,382.081 4.417,381.564 3.969 C 380.114 2.712,378.101 1.887,376.995 2.099 C 376.184 2.254,376.079 2.186,376.445 1.745 C 376.804 1.313,376.717 1.200,376.025 1.200 C 375.458 1.200,375.242 1.375,375.407 1.700 C 375.547 1.975,375.287 1.775,374.830 1.256 C 374.374 0.736,374.000 0.409,374.000 0.528 C 374.000 0.647,373.437 0.583,372.749 0.385 C 371.965 0.161,371.218 0.176,370.749 0.427 C 370.241 0.699,370.000 0.695,370.000 0.414 C 370.000 0.130,316.764 0.001,199.578 0.003 C 63.849 0.005,29.213 0.107,29.437 0.503 C 29.658 0.895,29.603 0.894,29.179 0.500 C 28.882 0.225,28.541 0.027,28.420 0.060 C 28.299 0.093,27.669 0.198,27.019 0.294 M91.401 44.399 C 91.247 44.647,91.988 44.778,93.368 44.746 C 94.853 44.712,95.509 44.548,95.361 44.248 C 95.239 44.001,95.471 44.174,95.878 44.631 C 96.392 45.210,97.160 45.483,98.408 45.532 C 99.394 45.570,100.260 45.781,100.333 46.001 C 100.407 46.220,101.172 46.400,102.033 46.400 C 102.895 46.400,103.600 46.580,103.600 46.800 C 103.600 47.020,103.960 47.200,104.400 47.200 C 104.840 47.200,105.200 47.380,105.200 47.600 C 105.200 47.820,105.931 48.000,106.824 48.000 C 107.804 48.000,108.349 48.158,108.200 48.400 C 108.063 48.621,108.351 48.800,108.843 48.800 C 109.333 48.800,109.616 48.917,109.473 49.061 C 109.109 49.424,111.234 50.472,111.853 50.235 C 112.167 50.115,112.275 50.261,112.137 50.620 C 111.999 50.978,112.160 51.200,112.557 51.200 C 112.911 51.200,113.200 51.380,113.200 51.600 C 113.200 51.820,113.430 52.000,113.712 52.000 C 113.993 52.000,114.483 52.360,114.799 52.799 C 115.144 53.277,115.648 53.512,116.054 53.383 C 116.427 53.264,116.866 53.383,117.028 53.646 C 117.233 53.976,117.151 54.019,116.762 53.783 C 116.453 53.596,117.085 54.296,118.167 55.338 C 119.654 56.770,120.224 57.106,120.504 56.716 C 120.772 56.344,120.813 56.394,120.651 56.897 C 120.528 57.281,120.705 57.820,121.045 58.097 C 122.912 59.618,124.000 60.738,124.000 61.139 C 124.000 61.387,124.315 61.955,124.700 62.401 C 125.085 62.846,125.985 64.326,126.700 65.690 C 127.826 67.836,128.231 68.260,128.047 67.100 C 127.971 66.615,128.263 66.752,128.851 67.477 C 129.224 67.937,129.240 68.057,128.900 67.853 C 128.550 67.643,128.400 67.873,128.400 68.619 C 128.400 69.419,128.555 69.626,129.021 69.447 C 129.377 69.311,129.537 69.378,129.397 69.605 C 129.263 69.822,129.388 70.003,129.676 70.006 C 130.058 70.011,130.038 70.115,129.603 70.389 C 129.095 70.711,129.089 70.843,129.562 71.283 C 130.021 71.711,130.062 71.696,129.795 71.200 C 129.617 70.870,129.625 70.739,129.812 70.910 C 129.999 71.080,130.163 71.800,130.176 72.510 C 130.189 73.219,130.381 73.770,130.602 73.733 C 130.823 73.696,131.003 74.236,131.002 74.933 C 131.001 75.630,131.183 76.169,131.408 76.131 C 131.648 76.090,131.753 76.709,131.665 77.638 C 131.582 78.506,131.721 79.463,131.972 79.767 C 132.244 80.094,132.439 81.920,132.453 84.259 C 132.465 86.427,132.660 88.425,132.886 88.700 C 133.176 89.052,133.154 89.200,132.812 89.200 C 132.473 89.200,132.367 89.865,132.463 91.401 C 132.555 92.872,132.448 93.601,132.140 93.601 C 131.883 93.600,131.680 94.205,131.680 94.973 C 131.680 95.729,131.532 96.584,131.350 96.873 C 131.169 97.163,130.960 97.850,130.886 98.400 C 130.811 98.950,130.582 99.460,130.375 99.533 C 130.169 99.607,130.000 100.014,130.000 100.439 C 130.000 100.863,129.832 101.523,129.626 101.905 C 129.421 102.287,129.017 103.185,128.729 103.900 C 128.440 104.615,128.069 105.200,127.902 105.200 C 127.736 105.200,127.600 105.545,127.600 105.967 C 127.600 106.388,127.422 106.793,127.203 106.867 C 126.985 106.940,126.767 107.482,126.719 108.072 C 126.670 108.661,126.443 109.111,126.215 109.072 C 125.987 109.032,125.792 109.488,125.782 110.085 C 125.772 110.682,125.608 111.312,125.418 111.485 C 125.227 111.658,125.201 111.575,125.359 111.300 C 125.682 110.739,125.549 110.691,124.633 111.043 C 124.285 111.176,124.000 111.534,124.000 111.837 C 124.000 112.484,117.184 119.449,116.701 119.295 C 116.248 119.151,114.391 121.057,114.691 121.358 C 114.824 121.491,114.623 121.600,114.243 121.600 C 113.797 121.600,113.659 121.777,113.853 122.100 C 114.028 122.391,113.839 122.349,113.402 122.000 C 112.726 121.460,112.675 121.466,112.895 122.055 C 113.081 122.552,112.955 122.661,112.370 122.508 C 111.947 122.397,111.600 122.508,111.600 122.753 C 111.600 122.999,111.407 123.200,111.171 123.200 C 110.936 123.200,110.480 123.462,110.160 123.783 C 109.839 124.104,108.600 124.674,107.406 125.051 C 106.213 125.427,105.323 125.875,105.429 126.046 C 105.535 126.218,105.302 126.299,104.911 126.227 C 103.927 126.045,102.297 126.710,102.585 127.176 C 102.823 127.561,101.516 127.443,100.826 127.016 C 100.622 126.890,100.342 126.970,100.204 127.193 C 100.066 127.417,99.078 127.600,98.010 127.600 C 96.941 127.600,96.001 127.796,95.921 128.036 C 95.725 128.626,86.649 128.701,85.932 128.118 C 85.639 127.881,84.636 127.678,83.702 127.668 C 82.769 127.658,81.779 127.511,81.503 127.340 C 81.226 127.169,80.506 127.081,79.902 127.145 C 79.297 127.208,78.535 126.993,78.208 126.666 C 77.861 126.318,77.253 126.166,76.744 126.299 C 76.148 126.455,75.965 126.381,76.161 126.063 C 76.342 125.770,76.146 125.600,75.624 125.600 C 75.171 125.600,74.800 125.420,74.800 125.200 C 74.800 124.980,74.350 124.800,73.800 124.800 C 73.250 124.800,72.800 124.620,72.800 124.400 C 72.800 124.180,72.530 124.000,72.200 124.000 C 71.870 124.000,71.600 123.820,71.600 123.600 C 71.600 123.380,71.240 123.200,70.800 123.200 C 70.360 123.200,70.000 123.020,70.000 122.800 C 70.000 122.580,69.730 122.400,69.400 122.400 C 69.070 122.400,68.800 122.264,68.800 122.098 C 68.800 121.931,68.290 121.569,67.666 121.293 C 66.760 120.892,64.003 118.615,61.882 116.515 C 60.167 114.817,57.740 111.891,56.522 110.052 C 55.702 108.813,54.664 107.471,54.215 107.070 C 53.767 106.668,53.625 106.453,53.900 106.593 C 54.175 106.733,54.400 106.657,54.400 106.424 C 54.400 106.191,54.220 106.000,54.000 106.000 C 53.780 106.000,53.600 105.714,53.600 105.364 C 53.600 105.014,53.195 104.371,52.700 103.934 C 52.205 103.497,52.025 103.253,52.300 103.393 C 52.575 103.533,52.800 103.472,52.800 103.257 C 52.800 103.042,52.625 102.807,52.412 102.733 C 52.198 102.660,51.963 102.200,51.889 101.710 C 51.815 101.221,51.629 100.696,51.477 100.544 C 51.325 100.391,51.200 99.836,51.200 99.310 C 51.200 98.758,51.026 98.460,50.790 98.606 C 50.565 98.745,50.406 98.711,50.437 98.530 C 50.659 97.253,50.349 95.460,50.000 96.000 C 49.519 96.745,49.474 96.433,49.579 93.060 C 49.622 91.679,49.498 90.816,49.275 90.953 C 49.051 91.092,48.871 89.587,48.830 87.229 C 48.793 85.052,48.933 83.165,49.143 83.035 C 49.651 82.721,49.543 78.686,49.016 78.283 C 48.778 78.102,48.942 78.017,49.400 78.083 C 50.061 78.180,50.222 77.940,50.324 76.700 C 50.392 75.875,50.638 75.200,50.871 75.200 C 51.107 75.200,51.208 74.754,51.100 74.190 C 50.992 73.626,51.123 73.052,51.395 72.890 C 51.971 72.548,52.445 70.400,51.945 70.400 C 51.755 70.400,51.600 70.209,51.600 69.976 C 51.600 69.743,51.781 69.665,52.003 69.802 C 52.510 70.115,53.600 69.058,53.600 68.252 C 53.600 67.919,53.796 67.526,54.035 67.378 C 54.274 67.231,54.384 66.783,54.280 66.385 C 54.142 65.857,54.259 65.724,54.711 65.898 C 55.084 66.041,55.228 65.970,55.074 65.720 C 54.932 65.491,55.172 64.893,55.607 64.391 C 56.255 63.645,56.308 63.368,55.899 62.863 C 55.527 62.403,55.523 62.320,55.885 62.538 C 56.387 62.839,56.654 62.600,59.400 59.390 C 60.280 58.361,61.315 57.227,61.700 56.871 C 62.085 56.514,62.400 55.992,62.400 55.711 C 62.400 55.430,62.535 55.221,62.700 55.247 C 63.701 55.405,64.400 55.112,64.400 54.533 C 64.400 54.167,64.511 53.978,64.648 54.114 C 65.018 54.484,65.995 53.364,66.032 52.529 C 66.050 52.108,66.149 52.012,66.265 52.300 C 66.376 52.575,66.642 52.800,66.857 52.800 C 67.072 52.800,67.136 52.620,67.000 52.400 C 66.864 52.180,67.123 52.000,67.576 52.000 C 68.029 52.000,68.400 51.820,68.400 51.600 C 68.400 51.380,68.661 51.200,68.980 51.200 C 69.299 51.200,69.737 50.885,69.952 50.500 C 70.167 50.115,70.491 49.823,70.672 49.852 C 71.272 49.947,72.800 49.226,72.800 48.847 C 72.800 48.642,73.160 48.569,73.600 48.684 C 74.047 48.801,74.400 48.696,74.400 48.447 C 74.400 48.201,74.741 48.000,75.157 48.000 C 75.574 48.000,76.009 47.752,76.126 47.449 C 76.260 47.100,76.713 46.971,77.368 47.096 C 77.979 47.213,78.400 47.111,78.400 46.847 C 78.400 46.601,78.929 46.400,79.576 46.400 C 80.223 46.400,80.864 46.220,81.000 46.000 C 81.136 45.780,82.212 45.600,83.390 45.600 C 84.634 45.600,85.597 45.409,85.685 45.146 C 85.779 44.864,86.770 44.713,88.294 44.747 C 89.645 44.778,90.863 44.622,90.999 44.401 C 91.136 44.181,91.337 44.000,91.447 44.000 C 91.557 44.000,91.536 44.179,91.401 44.399 M277.949 144.708 C 278.691 144.768,279.530 144.624,279.814 144.389 C 280.181 144.084,280.408 144.089,280.603 144.406 C 280.769 144.673,282.016 144.828,283.739 144.796 C 291.249 144.653,294.051 144.794,293.747 145.300 C 293.572 145.591,293.761 145.550,294.200 145.200 C 294.639 144.850,294.828 144.809,294.653 145.100 C 294.488 145.375,294.543 145.600,294.776 145.600 C 295.009 145.600,295.203 145.375,295.206 145.100 C 295.210 144.744,295.297 144.730,295.506 145.051 C 295.796 145.497,297.900 145.925,300.982 146.167 C 301.852 146.235,302.632 146.495,302.715 146.745 C 302.798 146.995,303.222 147.200,303.657 147.200 C 304.118 147.200,304.337 147.021,304.182 146.770 C 303.925 146.356,305.594 147.153,306.000 147.639 C 306.110 147.771,306.470 147.895,306.800 147.915 C 308.433 148.012,309.126 148.195,308.949 148.483 C 308.841 148.657,309.213 148.800,309.776 148.800 C 310.339 148.800,310.800 149.001,310.800 149.247 C 310.800 149.511,311.221 149.613,311.832 149.496 C 312.487 149.371,312.940 149.500,313.074 149.849 C 313.191 150.152,313.716 150.400,314.243 150.400 C 314.769 150.400,315.200 150.599,315.200 150.843 C 315.200 151.086,315.477 151.179,315.815 151.050 C 316.171 150.913,316.530 151.074,316.667 151.430 C 316.797 151.769,317.137 151.956,317.422 151.847 C 317.708 151.737,318.155 151.905,318.416 152.219 C 318.677 152.534,319.052 152.692,319.248 152.570 C 319.445 152.449,319.718 152.641,319.854 152.998 C 319.991 153.354,320.314 153.565,320.572 153.466 C 320.831 153.367,321.469 153.729,321.990 154.271 C 322.538 154.840,323.235 155.179,323.639 155.074 C 324.086 154.957,324.270 155.073,324.147 155.394 C 323.879 156.092,325.249 156.549,325.706 155.914 C 325.971 155.544,326.013 155.596,325.852 156.095 C 325.615 156.834,328.217 158.960,328.867 158.559 C 329.050 158.445,329.200 158.644,329.200 159.000 C 329.200 159.356,329.380 159.536,329.600 159.400 C 329.820 159.264,330.000 159.338,330.000 159.565 C 330.000 159.792,331.800 161.779,334.000 163.980 C 336.200 166.182,338.000 168.167,338.000 168.392 C 338.000 168.616,338.180 168.800,338.400 168.800 C 338.620 168.800,338.800 169.081,338.800 169.424 C 338.800 169.767,338.980 169.936,339.200 169.800 C 339.420 169.664,339.600 169.833,339.600 170.176 C 339.600 170.519,339.746 170.800,339.924 170.800 C 340.101 170.800,340.596 171.085,341.024 171.433 C 341.678 171.966,341.691 172.031,341.106 171.847 C 340.506 171.659,340.478 171.736,340.902 172.415 C 341.172 172.847,341.529 173.200,341.696 173.200 C 341.863 173.200,342.000 173.560,342.000 174.000 C 342.000 174.440,342.184 174.800,342.409 174.800 C 342.633 174.800,343.020 175.244,343.267 175.787 C 343.515 176.331,343.854 176.690,344.021 176.587 C 344.189 176.484,344.236 176.739,344.128 177.154 C 344.019 177.570,344.126 178.031,344.365 178.178 C 344.604 178.326,344.800 178.816,344.800 179.266 C 344.800 179.801,344.993 180.012,345.355 179.873 C 345.754 179.719,345.848 179.894,345.690 180.497 C 345.518 181.158,345.613 181.281,346.142 181.078 C 346.686 180.869,346.777 181.015,346.624 181.857 C 346.515 182.460,346.681 183.138,347.022 183.479 C 347.344 183.801,347.505 184.230,347.380 184.432 C 347.255 184.635,347.343 184.800,347.576 184.800 C 347.809 184.800,348.000 185.239,348.000 185.776 C 348.000 186.313,348.180 186.864,348.400 187.000 C 348.620 187.136,348.800 187.667,348.800 188.181 C 348.800 188.694,349.056 189.213,349.369 189.333 C 349.717 189.466,349.854 189.871,349.722 190.376 C 349.600 190.845,349.699 191.200,349.953 191.200 C 350.199 191.200,350.400 191.545,350.400 191.967 C 350.400 192.388,350.610 192.803,350.867 192.889 C 351.123 192.974,351.333 193.750,351.333 194.612 C 351.333 195.697,351.590 196.408,352.167 196.920 C 352.625 197.328,352.786 197.553,352.524 197.422 C 351.817 197.066,352.030 198.764,352.890 200.330 C 353.291 201.061,353.435 201.545,353.210 201.406 C 352.984 201.267,352.800 201.433,352.800 201.776 C 352.800 202.119,353.011 202.355,353.270 202.300 C 353.589 202.232,353.706 202.824,353.636 204.156 C 353.576 205.300,353.723 206.229,353.990 206.394 C 354.242 206.550,354.475 207.502,354.508 208.510 C 354.541 209.519,354.710 210.256,354.884 210.148 C 355.058 210.041,355.200 210.751,355.200 211.727 C 355.200 212.811,355.432 213.695,355.796 213.996 C 356.440 214.531,356.210 215.377,355.534 214.959 C 355.292 214.810,355.190 215.012,355.285 215.453 C 355.375 215.864,355.617 216.170,355.824 216.133 C 356.042 216.094,356.162 217.647,356.108 219.833 C 356.054 222.085,356.174 223.600,356.408 223.600 C 356.649 223.600,356.800 226.359,356.800 230.767 C 356.800 235.295,356.951 237.984,357.209 238.070 C 357.768 238.256,357.756 347.745,357.197 347.933 C 356.979 348.007,356.800 348.412,356.800 348.833 C 356.800 349.255,356.599 349.600,356.353 349.600 C 356.091 349.600,355.987 350.019,356.101 350.616 C 356.221 351.244,356.129 351.576,355.859 351.486 C 355.350 351.317,353.600 352.958,353.600 353.605 C 353.600 353.848,353.442 353.949,353.249 353.830 C 352.855 353.587,350.400 354.707,350.400 355.129 C 350.400 355.582,298.299 355.259,297.843 354.803 C 297.621 354.581,297.206 354.400,296.920 354.400 C 296.634 354.400,296.400 354.220,296.400 354.000 C 296.400 353.780,296.131 353.600,295.803 353.600 C 294.965 353.600,293.200 351.984,293.200 351.216 C 293.200 350.864,292.840 350.317,292.400 350.000 C 291.960 349.683,291.600 349.183,291.600 348.888 C 291.600 348.594,291.420 348.464,291.200 348.600 C 290.980 348.736,290.800 348.657,290.800 348.424 C 290.800 348.191,291.001 348.000,291.247 348.000 C 291.514 348.000,291.597 347.639,291.453 347.100 C 291.322 346.605,291.208 321.945,291.201 292.300 C 291.193 255.891,291.056 238.400,290.780 238.400 C 290.520 238.400,290.503 238.146,290.734 237.700 C 290.933 237.315,291.016 236.640,290.917 236.200 C 290.819 235.760,290.640 234.354,290.519 233.076 C 290.344 231.215,290.180 230.799,289.694 230.985 C 289.244 231.158,289.192 231.086,289.493 230.709 C 290.013 230.058,289.519 226.570,288.923 226.686 C 288.665 226.737,288.570 226.435,288.695 225.957 C 288.911 225.131,288.138 222.118,287.530 221.420 C 287.349 221.211,287.197 220.581,287.194 220.020 C 287.189 219.215,287.106 219.126,286.800 219.600 C 286.407 220.207,286.193 219.461,286.370 218.100 C 286.406 217.825,286.174 217.600,285.855 217.600 C 285.472 217.600,285.346 217.328,285.484 216.800 C 285.601 216.353,285.496 216.000,285.247 216.000 C 285.001 216.000,284.800 215.640,284.800 215.200 C 284.800 214.760,284.620 214.400,284.400 214.400 C 284.180 214.400,284.000 214.130,284.000 213.800 C 284.000 213.470,283.820 213.200,283.600 213.200 C 283.380 213.200,283.200 212.911,283.200 212.557 C 283.200 212.173,282.976 212.000,282.645 212.127 C 282.253 212.278,282.137 212.086,282.250 211.470 C 282.337 210.992,282.302 210.825,282.171 211.100 C 281.822 211.835,281.183 211.710,281.469 210.964 C 281.621 210.567,281.315 209.958,280.657 209.347 C 280.076 208.809,279.600 208.566,279.600 208.807 C 279.600 209.049,279.417 209.134,279.193 208.996 C 278.970 208.858,278.890 208.577,279.017 208.373 C 279.278 207.951,277.250 206.032,276.523 206.013 C 276.260 206.006,275.810 205.672,275.523 205.271 C 275.235 204.870,274.415 204.286,273.700 203.973 C 272.985 203.661,272.400 203.269,272.400 203.102 C 272.400 202.936,272.040 202.800,271.600 202.800 C 271.160 202.800,270.800 202.620,270.800 202.400 C 270.800 202.180,270.451 202.000,270.024 202.000 C 269.597 202.000,269.136 201.820,269.000 201.600 C 268.864 201.380,268.144 201.200,267.400 201.200 C 266.656 201.200,265.945 201.035,265.820 200.832 C 265.512 200.334,260.754 200.340,260.152 200.840 C 259.830 201.107,259.584 201.097,259.406 200.810 C 259.260 200.573,259.289 200.430,259.470 200.490 C 259.652 200.551,259.890 200.420,260.000 200.200 C 260.263 199.674,251.972 199.526,251.346 200.045 C 251.092 200.255,250.056 200.444,249.042 200.464 C 248.029 200.485,247.200 200.659,247.200 200.851 C 247.200 201.043,246.581 201.200,245.824 201.200 C 245.067 201.200,244.336 201.380,244.200 201.600 C 244.064 201.820,243.513 202.000,242.976 202.000 C 242.439 202.000,242.000 202.180,242.000 202.400 C 242.000 202.620,241.640 202.800,241.200 202.800 C 240.760 202.800,240.400 202.980,240.400 203.200 C 240.400 203.420,240.124 203.600,239.787 203.600 C 239.451 203.600,239.072 203.869,238.946 204.198 C 238.819 204.526,238.555 204.696,238.358 204.574 C 238.161 204.452,238.000 204.653,238.000 205.019 C 238.000 205.461,237.788 205.604,237.370 205.444 C 236.710 205.190,235.458 206.125,235.886 206.552 C 236.107 206.774,235.431 206.954,234.733 206.858 C 233.826 206.734,227.331 214.397,227.878 214.945 C 228.019 215.085,227.913 215.200,227.643 215.200 C 227.373 215.200,227.264 215.380,227.400 215.600 C 227.536 215.820,227.461 216.000,227.234 216.000 C 226.710 216.000,225.496 218.308,225.779 218.766 C 225.896 218.955,225.723 219.332,225.396 219.604 C 225.068 219.876,224.800 220.436,224.800 220.849 C 224.800 221.262,224.609 221.600,224.376 221.600 C 224.143 221.600,224.055 221.765,224.180 221.968 C 224.305 222.170,224.136 222.607,223.804 222.939 C 223.472 223.271,223.200 223.826,223.200 224.171 C 223.200 224.517,223.020 224.800,222.800 224.800 C 222.580 224.800,222.397 225.655,222.394 226.700 C 222.389 228.074,222.280 228.434,222.000 228.000 C 221.705 227.543,221.611 227.705,221.606 228.676 C 221.603 229.378,221.420 230.064,221.200 230.200 C 220.980 230.336,220.800 231.067,220.800 231.824 C 220.800 232.581,220.635 233.200,220.433 233.200 C 220.232 233.200,220.067 234.018,220.067 235.019 C 220.067 236.019,219.855 237.092,219.597 237.404 C 219.313 237.745,219.181 238.927,219.264 240.385 C 219.345 241.821,219.238 242.801,219.000 242.801 C 218.735 242.800,218.600 260.671,218.600 295.615 C 218.600 340.334,218.515 348.482,218.043 348.774 C 217.706 348.982,217.576 349.464,217.713 349.991 C 217.879 350.622,217.791 350.805,217.395 350.653 C 217.060 350.525,216.646 350.900,216.326 351.622 C 216.039 352.270,215.560 352.800,215.260 352.800 C 214.960 352.800,214.360 353.252,213.926 353.804 C 213.491 354.356,212.950 354.693,212.723 354.553 C 212.496 354.412,212.185 354.501,212.031 354.750 C 211.609 355.433,161.281 355.588,161.020 354.907 C 160.915 354.635,160.561 354.517,160.233 354.643 C 159.890 354.774,159.194 354.430,158.600 353.836 C 158.030 353.266,157.382 352.800,157.161 352.800 C 156.940 352.800,156.570 352.260,156.340 351.600 C 156.073 350.834,155.647 350.400,155.161 350.400 C 154.742 350.400,154.400 350.209,154.400 349.976 C 154.400 349.743,154.579 349.664,154.799 349.799 C 155.064 349.963,155.064 349.695,154.800 349.001 C 154.246 347.544,154.243 154.252,154.797 154.068 C 155.019 153.994,155.200 153.678,155.200 153.367 C 155.200 153.055,155.351 152.800,155.536 152.800 C 156.004 152.800,156.860 150.820,156.584 150.375 C 156.460 150.174,156.638 150.116,156.979 150.247 C 157.321 150.378,157.600 150.315,157.600 150.106 C 157.600 149.897,158.230 149.387,159.000 148.972 C 159.770 148.557,160.400 148.124,160.400 148.009 C 160.400 147.894,171.410 147.851,184.868 147.914 C 204.450 148.005,209.401 147.925,209.662 147.514 C 209.916 147.114,209.989 147.111,209.994 147.500 C 209.998 147.804,210.550 148.000,211.400 148.000 C 212.170 148.000,212.800 148.150,212.800 148.332 C 212.800 148.515,213.295 148.920,213.900 149.232 C 215.397 150.005,216.800 151.432,216.800 152.182 C 216.800 152.522,216.980 152.800,217.200 152.800 C 217.420 152.800,217.600 153.089,217.600 153.443 C 217.600 153.830,217.823 154.000,218.161 153.870 C 218.635 153.689,218.713 155.212,218.661 163.599 C 218.628 169.068,218.740 173.293,218.911 172.988 C 219.081 172.683,219.486 172.535,219.811 172.659 C 220.140 172.786,220.400 172.661,220.400 172.376 C 220.400 172.096,220.520 171.987,220.668 172.134 C 220.973 172.439,222.400 171.266,222.400 170.709 C 222.400 170.508,222.662 170.081,222.983 169.760 C 223.304 169.439,223.467 168.867,223.345 168.488 C 223.171 167.945,223.208 167.918,223.522 168.358 C 223.836 168.800,224.063 168.638,224.607 167.586 C 224.986 166.854,226.180 165.394,227.261 164.341 C 228.342 163.288,229.220 162.331,229.213 162.213 C 229.206 162.096,229.299 162.009,229.421 162.020 C 229.543 162.031,230.155 161.491,230.782 160.820 C 231.408 160.149,232.075 159.600,232.264 159.600 C 232.453 159.600,232.832 159.240,233.107 158.800 C 233.382 158.360,233.839 158.000,234.122 158.000 C 234.673 158.000,235.901 157.146,237.395 155.724 C 237.901 155.243,238.420 154.953,238.548 155.081 C 238.887 155.420,240.031 154.374,239.775 153.959 C 239.656 153.767,239.838 153.716,240.179 153.847 C 240.522 153.979,240.800 153.876,240.800 153.619 C 240.800 153.363,240.980 153.264,241.200 153.400 C 241.420 153.536,241.601 153.502,241.603 153.324 C 241.607 152.899,243.561 152.000,244.480 152.000 C 244.876 152.000,245.200 151.840,245.200 151.644 C 245.200 151.448,246.010 151.049,247.000 150.757 C 247.990 150.465,248.800 150.085,248.800 149.913 C 248.800 149.741,249.070 149.600,249.400 149.600 C 249.730 149.600,250.000 149.457,250.000 149.282 C 250.000 149.107,250.675 148.918,251.499 148.863 C 252.324 148.807,253.170 148.590,253.379 148.381 C 253.589 148.171,254.242 148.000,254.831 148.000 C 255.420 148.000,256.105 147.755,256.354 147.456 C 256.610 147.146,257.235 146.994,257.803 147.103 C 258.384 147.214,258.800 147.107,258.800 146.847 C 258.800 146.567,259.700 146.400,261.200 146.400 C 262.533 146.400,263.600 146.222,263.600 146.000 C 263.600 145.780,264.241 145.600,265.024 145.600 C 265.936 145.600,266.352 145.446,266.182 145.170 C 266.036 144.934,266.295 144.978,266.758 145.267 C 267.416 145.678,267.766 145.689,268.360 145.318 C 268.778 145.057,270.668 144.809,272.560 144.767 C 274.772 144.718,276.002 144.532,276.006 144.246 C 276.010 143.959,276.117 143.943,276.306 144.200 C 276.468 144.420,277.207 144.649,277.949 144.708 M116.731 148.394 C 116.806 148.617,117.093 148.800,117.370 148.800 C 118.120 148.800,121.600 152.222,121.600 152.960 C 121.600 153.312,121.851 153.600,122.157 153.600 C 122.464 153.600,122.824 153.885,122.957 154.233 C 123.393 155.368,123.236 347.200,122.800 347.200 C 122.580 347.200,122.400 347.740,122.400 348.400 C 122.400 349.060,122.232 349.600,122.027 349.600 C 121.822 349.600,121.535 349.974,121.390 350.432 C 121.062 351.464,118.872 353.600,118.141 353.600 C 117.843 353.600,117.600 353.864,117.600 354.187 C 117.600 354.547,117.366 354.685,116.995 354.543 C 116.662 354.415,116.153 354.507,115.864 354.747 C 115.142 355.346,66.272 355.416,66.073 354.818 C 65.996 354.588,65.588 354.400,65.167 354.400 C 64.745 354.400,64.400 354.220,64.400 354.000 C 64.400 353.780,64.125 353.600,63.789 353.600 C 63.133 353.600,60.119 350.700,59.302 349.281 C 58.655 348.160,58.551 154.683,59.197 154.468 C 59.419 154.394,59.600 154.028,59.600 153.655 C 59.600 153.282,59.960 152.717,60.400 152.400 C 60.840 152.083,61.200 151.587,61.200 151.299 C 61.200 151.011,61.515 150.658,61.900 150.515 C 62.285 150.372,62.891 149.928,63.247 149.528 C 63.603 149.127,64.111 148.800,64.375 148.800 C 64.640 148.800,65.082 148.575,65.357 148.300 C 66.003 147.655,116.516 147.747,116.731 148.394 M153.100 298.900 C 153.043 324.915,152.997 303.630,152.997 251.600 C 152.997 199.570,153.043 178.285,153.100 204.300 C 153.157 230.315,153.157 272.885,153.100 298.900 " stroke="none" fill="#0474b4" fill-rule="evenodd"></path><path id="path1" d="M152.997 251.600 C 152.997 303.630,153.043 324.915,153.100 298.900 C 153.157 272.885,153.157 230.315,153.100 204.300 C 153.043 178.285,152.997 199.570,152.997 251.600 M355.370 214.278 C 355.429 214.675,355.609 214.970,355.771 214.933 C 356.379 214.796,356.402 214.500,355.842 214.035 C 355.372 213.645,355.284 213.690,355.370 214.278 " stroke="none" fill="#047cb5" fill-rule="evenodd"></path><path id="path2" d="M122.412 154.000 C 122.412 154.330,122.587 154.870,122.800 155.200 C 123.145 155.733,123.188 155.733,123.188 155.200 C 123.188 154.870,123.013 154.330,122.800 154.000 C 122.455 153.467,122.412 153.467,122.412 154.000 M218.567 164.800 C 218.567 169.090,218.626 170.845,218.698 168.700 C 218.770 166.555,218.770 163.045,218.698 160.900 C 218.626 158.755,218.567 160.510,218.567 164.800 M220.400 172.418 C 220.400 172.647,220.104 172.782,219.741 172.718 C 219.379 172.653,219.033 172.830,218.971 173.110 C 218.910 173.391,218.945 173.455,219.049 173.252 C 219.153 173.050,219.590 172.977,220.019 173.089 C 220.556 173.229,220.800 173.091,220.800 172.647 C 220.800 172.291,220.710 172.000,220.600 172.000 C 220.490 172.000,220.400 172.188,220.400 172.418 M218.594 295.600 C 218.594 323.210,218.642 334.505,218.700 320.700 C 218.758 306.895,218.758 284.305,218.700 270.500 C 218.642 256.695,218.594 267.990,218.594 295.600 " stroke="none" fill="#0474bc" fill-rule="evenodd"></path><path id="path3" d="" stroke="none" fill="#0874b4" fill-rule="evenodd"></path><path id="path4" d="" stroke="none" fill="#0874b4" fill-rule="evenodd"></path></g></svg>