<?xml version="1.0" standalone="no"?>
<!DOCTYPE svg PUBLIC "-//W3C//DTD SVG 20010904//EN"
 "http://www.w3.org/TR/2001/REC-SVG-20010904/DTD/svg10.dtd">
<svg version="1.0" xmlns="http://www.w3.org/2000/svg"
 width="48.000000pt" height="48.000000pt" viewBox="0 0 48.000000 48.000000"
 preserveAspectRatio="xMidYMid meet">

<g transform="translate(0.000000,48.000000) scale(0.100000,-0.100000)"
fill="#000000" stroke="none">
<path d="M152 414 c-115 -57 -144 -204 -60 -300 27 -30 75 -64 93 -64 3 0 5
10 5 23 0 17 -6 22 -27 24 -14 0 -30 8 -35 17 -5 8 -15 22 -24 31 -13 12 -13
15 -1 15 8 0 22 -9 32 -20 21 -23 36 -25 53 -8 9 9 3 16 -25 33 -46 25 -62 62
-45 108 7 19 12 46 12 61 0 25 3 27 23 20 23 -8 137 -10 172 -3 15 3 21 -3 27
-31 4 -19 10 -46 13 -60 10 -38 -11 -78 -47 -96 -32 -15 -33 -17 -30 -65 2
-27 6 -49 10 -49 3 0 24 11 48 25 30 18 49 40 68 77 33 67 33 112 -2 179 -22
43 -38 59 -81 81 -67 35 -112 35 -179 2z"/>
</g>
</svg>
