<svg id="svg" version="1.1" xmlns="http://www.w3.org/2000/svg" xmlns:xlink="http://www.w3.org/1999/xlink" width="100" height="100" viewBox="0, 0, 400,400"><g id="svgg"><path id="path0" d="M74.800 286.967 C 74.800 321.384,74.936 339.179,75.200 339.267 C 75.420 339.340,127.755 339.310,191.500 339.200 L 307.400 339.000 307.501 286.900 L 307.603 234.800 294.201 234.800 L 280.800 234.800 280.800 273.400 L 280.800 312.000 191.400 312.000 L 102.000 312.000 102.000 273.400 L 102.000 234.800 88.400 234.800 L 74.800 234.800 74.800 286.967 " stroke="none" fill="#bcbcbc" fill-rule="evenodd"></path><path id="path1" d="M240.400 50.000 C 239.850 50.647,239.157 51.181,238.860 51.188 C 238.564 51.195,237.817 51.740,237.200 52.400 C 236.583 53.060,235.863 53.600,235.600 53.600 C 235.337 53.600,234.617 54.140,234.000 54.800 C 233.383 55.460,232.631 56.000,232.328 56.000 C 232.025 56.000,231.517 56.360,231.200 56.800 C 230.883 57.240,230.393 57.600,230.112 57.600 C 229.830 57.600,229.600 57.780,229.600 58.000 C 229.600 58.220,229.330 58.400,229.000 58.400 C 228.670 58.400,228.400 58.541,228.400 58.714 C 228.400 58.886,227.815 59.373,227.100 59.795 C 226.386 60.218,225.387 60.976,224.882 61.481 C 224.377 61.987,223.811 62.400,223.624 62.400 C 221.945 62.400,220.369 65.513,221.600 66.400 C 222.040 66.717,222.400 67.180,222.400 67.429 C 222.400 67.678,222.940 68.446,223.600 69.137 C 224.260 69.828,224.802 70.529,224.804 70.696 C 224.808 71.028,227.082 74.069,228.385 75.486 C 228.833 75.973,229.200 76.531,229.200 76.726 C 229.200 76.922,229.740 77.646,230.400 78.337 C 231.060 79.028,231.600 79.792,231.600 80.036 C 231.600 80.280,232.140 80.983,232.800 81.600 C 233.460 82.217,234.000 82.920,234.000 83.164 C 234.000 83.408,234.540 84.172,235.200 84.863 C 235.860 85.554,236.400 86.280,236.400 86.478 C 236.400 86.675,236.837 87.273,237.371 87.807 C 237.905 88.341,238.664 89.323,239.057 89.989 C 239.451 90.655,239.914 91.200,240.086 91.200 C 240.259 91.200,240.400 91.404,240.400 91.653 C 240.400 91.902,240.733 92.397,241.141 92.753 C 241.548 93.109,242.168 93.940,242.518 94.600 C 242.868 95.260,243.704 96.430,244.376 97.200 C 245.048 97.970,245.599 98.785,245.599 99.012 C 245.600 99.238,245.960 99.683,246.400 100.000 C 246.840 100.317,247.200 100.780,247.200 101.029 C 247.200 101.278,247.740 102.046,248.400 102.737 C 249.060 103.428,249.600 104.148,249.600 104.337 C 249.600 104.526,250.140 105.246,250.800 105.937 C 251.460 106.628,252.000 107.330,252.000 107.498 C 252.000 107.665,252.540 108.312,253.200 108.935 C 253.860 109.558,254.400 110.283,254.400 110.546 C 254.400 110.808,254.760 111.283,255.200 111.600 C 255.640 111.917,256.000 112.380,256.000 112.629 C 256.000 112.878,256.540 113.646,257.200 114.337 C 257.860 115.028,258.400 115.697,258.400 115.825 C 258.400 116.099,261.962 121.170,262.677 121.915 C 262.949 122.198,263.487 122.963,263.872 123.615 C 264.257 124.267,264.714 124.800,264.886 124.800 C 265.059 124.800,265.200 124.998,265.200 125.240 C 265.200 125.481,265.740 126.183,266.400 126.800 C 267.060 127.417,267.600 128.137,267.600 128.400 C 267.600 128.663,268.140 129.383,268.800 130.000 C 269.460 130.617,270.000 131.320,270.000 131.564 C 270.000 131.808,270.540 132.572,271.200 133.263 C 271.860 133.954,272.400 134.722,272.400 134.971 C 272.400 135.220,272.760 135.683,273.200 136.000 C 273.640 136.317,274.000 136.807,274.000 137.088 C 274.000 137.370,274.180 137.600,274.400 137.600 C 274.620 137.600,274.800 137.870,274.800 138.200 C 274.800 138.530,274.941 138.800,275.114 138.800 C 275.286 138.800,275.727 139.295,276.094 139.900 C 276.460 140.505,277.219 141.523,277.780 142.162 C 278.341 142.801,278.800 143.468,278.800 143.644 C 278.800 143.820,279.250 144.414,279.800 144.964 C 280.350 145.514,280.800 146.125,280.800 146.322 C 280.800 146.520,281.340 147.246,282.000 147.937 C 282.660 148.628,283.200 149.348,283.200 149.537 C 283.200 149.726,283.740 150.446,284.400 151.137 C 285.060 151.828,285.600 152.548,285.600 152.737 C 285.600 152.926,286.140 153.646,286.800 154.337 C 287.460 155.028,288.000 155.748,288.000 155.937 C 288.000 156.126,288.540 156.846,289.200 157.537 C 289.860 158.228,290.400 158.908,290.400 159.049 C 290.400 159.191,290.717 159.597,291.106 159.953 C 291.494 160.309,292.164 161.275,292.596 162.100 C 293.028 162.925,293.478 163.600,293.597 163.600 C 293.715 163.600,294.256 164.320,294.800 165.200 C 295.344 166.080,295.905 166.800,296.046 166.800 C 296.187 166.800,296.527 167.340,296.800 168.000 C 297.455 169.582,298.808 169.582,300.463 168.000 C 301.154 167.340,301.922 166.800,302.171 166.800 C 302.420 166.800,302.883 166.440,303.200 166.000 C 303.517 165.560,304.007 165.200,304.288 165.200 C 304.570 165.200,304.800 165.020,304.800 164.800 C 304.800 164.580,304.977 164.400,305.193 164.400 C 305.562 164.400,306.795 163.399,309.013 161.300 C 309.536 160.805,310.176 160.400,310.435 160.400 C 310.694 160.400,311.197 160.067,311.553 159.659 C 311.909 159.252,312.740 158.637,313.400 158.293 C 314.060 157.949,314.997 157.293,315.483 156.834 C 315.969 156.375,316.519 156.000,316.705 156.000 C 317.293 156.000,320.000 153.317,320.000 152.734 C 320.000 152.428,319.640 151.917,319.200 151.600 C 318.760 151.283,318.400 150.820,318.400 150.571 C 318.400 150.322,317.860 149.554,317.200 148.863 C 316.540 148.172,316.000 147.452,316.000 147.263 C 316.000 147.074,315.460 146.354,314.800 145.663 C 314.140 144.972,313.600 144.306,313.600 144.182 C 313.600 144.058,313.061 143.381,312.402 142.678 C 311.743 141.975,311.203 141.247,311.202 141.060 C 311.201 140.874,310.660 140.217,310.000 139.600 C 309.340 138.983,308.800 138.219,308.800 137.901 C 308.800 137.583,308.485 136.950,308.100 136.495 C 306.245 134.302,306.000 133.964,306.000 133.595 C 306.000 133.378,305.862 133.200,305.694 133.200 C 305.526 133.200,304.944 132.480,304.400 131.600 C 303.856 130.720,303.316 130.000,303.200 130.000 C 303.084 130.000,302.544 129.280,302.000 128.400 C 301.456 127.520,300.874 126.800,300.706 126.800 C 300.538 126.800,300.400 126.602,300.400 126.360 C 300.400 126.119,299.860 125.417,299.200 124.800 C 298.540 124.183,298.000 123.463,298.000 123.200 C 298.000 122.937,297.460 122.217,296.800 121.600 C 296.140 120.983,295.600 120.263,295.600 120.000 C 295.600 119.737,295.060 119.017,294.400 118.400 C 293.740 117.783,293.200 117.075,293.200 116.825 C 293.200 116.576,292.835 115.973,292.390 115.486 C 291.944 114.999,290.927 113.619,290.129 112.420 C 289.330 111.222,288.255 109.819,287.739 109.302 C 287.222 108.786,286.800 108.200,286.800 108.000 C 286.800 107.800,286.350 107.186,285.800 106.636 C 285.250 106.086,284.800 105.475,284.800 105.278 C 284.800 105.080,284.260 104.354,283.600 103.663 C 282.940 102.972,282.400 102.252,282.400 102.063 C 282.400 101.874,281.860 101.154,281.200 100.463 C 280.540 99.772,280.000 99.052,280.000 98.863 C 280.000 98.674,279.460 97.954,278.800 97.263 C 278.140 96.572,277.600 95.852,277.600 95.663 C 277.600 95.474,277.060 94.754,276.400 94.063 C 275.740 93.372,275.200 92.634,275.200 92.422 C 275.200 92.210,274.750 91.586,274.200 91.036 C 273.650 90.486,273.200 89.875,273.200 89.678 C 273.200 89.480,272.660 88.754,272.000 88.063 C 271.340 87.372,270.800 86.624,270.800 86.400 C 270.800 86.176,270.260 85.428,269.600 84.737 C 268.940 84.046,268.400 83.278,268.400 83.029 C 268.400 82.780,268.040 82.317,267.600 82.000 C 267.160 81.683,266.800 81.193,266.800 80.912 C 266.800 80.630,266.620 80.400,266.400 80.400 C 266.180 80.400,266.000 80.223,266.000 80.007 C 266.000 79.639,265.015 78.408,262.900 76.132 C 262.405 75.599,262.000 74.974,262.000 74.742 C 262.000 74.511,261.460 73.817,260.800 73.200 C 260.140 72.583,259.600 71.868,259.600 71.611 C 259.600 71.353,259.375 70.892,259.100 70.585 C 258.339 69.737,257.891 69.137,256.800 67.503 C 256.250 66.679,255.665 66.004,255.500 66.003 C 255.335 66.001,255.200 65.764,255.200 65.475 C 255.200 65.187,254.880 64.602,254.489 64.175 C 254.098 63.749,253.342 62.770,252.808 62.000 C 252.275 61.230,251.514 60.309,251.119 59.953 C 250.724 59.597,250.400 59.142,250.400 58.941 C 250.400 58.741,250.040 58.317,249.600 58.000 C 249.160 57.683,248.800 57.220,248.800 56.971 C 248.800 56.722,248.260 55.954,247.600 55.263 C 246.940 54.572,246.400 53.808,246.400 53.564 C 246.400 53.320,245.860 52.617,245.200 52.000 C 244.540 51.383,244.000 50.668,244.000 50.411 C 244.000 48.648,241.766 48.393,240.400 50.000 M193.600 90.744 C 193.600 90.933,193.015 91.722,192.300 92.497 C 190.595 94.345,189.600 95.563,189.600 95.803 C 189.600 95.909,188.700 96.915,187.600 98.039 C 186.500 99.162,185.600 100.248,185.600 100.451 C 185.600 100.655,184.790 101.631,183.800 102.621 C 182.810 103.611,182.000 104.592,182.000 104.800 C 182.000 105.008,181.209 105.970,180.242 106.937 C 177.729 109.450,176.814 112.000,178.425 112.000 C 178.629 112.000,179.715 112.900,180.839 114.000 C 181.962 115.100,183.042 116.000,183.239 116.000 C 183.435 116.000,184.515 116.900,185.639 118.000 C 186.762 119.100,187.861 120.000,188.080 120.000 C 188.299 120.000,188.956 120.496,189.540 121.101 C 190.123 121.707,191.320 122.734,192.200 123.384 C 193.080 124.034,194.277 125.069,194.860 125.683 C 195.444 126.297,196.091 126.800,196.299 126.800 C 196.508 126.800,197.813 127.880,199.200 129.200 C 200.587 130.520,201.874 131.600,202.059 131.600 C 202.244 131.600,203.315 132.500,204.439 133.600 C 205.562 134.700,206.657 135.600,206.872 135.600 C 207.087 135.600,207.924 136.275,208.731 137.100 C 209.539 137.925,210.830 139.077,211.600 139.659 C 212.370 140.242,213.397 141.097,213.883 141.559 C 214.369 142.022,214.954 142.400,215.183 142.400 C 215.412 142.400,215.600 142.580,215.600 142.800 C 215.600 143.020,215.776 143.200,215.991 143.200 C 216.205 143.200,217.325 144.100,218.478 145.200 C 219.631 146.300,220.730 147.200,220.919 147.200 C 221.108 147.200,221.924 147.887,222.731 148.726 C 223.539 149.565,224.494 150.420,224.853 150.626 C 225.212 150.832,226.409 151.810,227.512 152.800 C 230.854 155.799,233.257 157.768,234.344 158.400 C 234.912 158.730,236.042 159.675,236.857 160.500 C 237.671 161.325,238.543 162.000,238.795 162.000 C 239.046 162.000,240.129 162.900,241.200 164.000 C 242.271 165.100,243.246 166.000,243.365 166.000 C 243.484 166.000,244.525 166.900,245.678 168.000 C 246.831 169.100,247.933 170.000,248.127 170.000 C 248.321 170.000,248.956 170.502,249.540 171.115 C 250.123 171.729,251.230 172.669,252.000 173.205 C 253.887 174.517,254.224 174.791,255.808 176.300 C 256.559 177.015,257.342 177.600,257.547 177.600 C 257.753 177.600,258.794 178.497,259.861 179.594 C 260.927 180.690,261.934 181.590,262.098 181.594 C 262.262 181.597,263.315 182.500,264.439 183.600 C 265.562 184.700,266.640 185.600,266.833 185.600 C 267.027 185.600,268.030 186.409,269.062 187.398 C 270.094 188.386,271.015 189.118,271.109 189.024 C 271.203 188.930,271.876 189.426,272.604 190.127 C 276.413 193.789,277.280 193.947,279.819 191.444 C 280.799 190.478,281.600 189.561,281.600 189.405 C 281.600 189.249,282.102 188.644,282.715 188.060 C 283.329 187.477,284.273 186.370,284.813 185.600 C 285.354 184.830,286.472 183.503,287.298 182.652 C 288.124 181.800,288.800 180.939,288.800 180.738 C 288.800 180.538,289.385 179.759,290.100 179.008 C 291.970 177.045,292.400 176.486,292.400 176.020 C 292.400 175.793,292.760 175.382,293.200 175.107 C 294.644 174.206,292.077 169.200,290.171 169.200 C 290.033 169.200,289.444 168.698,288.860 168.085 C 288.277 167.471,287.178 166.532,286.417 165.998 C 285.656 165.464,284.229 164.256,283.245 163.313 C 282.262 162.371,281.328 161.600,281.171 161.600 C 280.912 161.600,279.826 160.701,277.314 158.409 C 276.827 157.964,276.152 157.600,275.814 157.600 C 275.476 157.600,275.200 157.433,275.200 157.229 C 275.200 156.774,274.541 156.110,272.790 154.800 C 272.054 154.250,270.680 153.035,269.737 152.100 C 268.793 151.165,267.858 150.400,267.659 150.400 C 267.459 150.400,266.600 149.724,265.748 148.898 C 264.897 148.072,263.570 146.955,262.800 146.417 C 262.030 145.879,261.130 145.157,260.800 144.815 C 260.470 144.472,259.480 143.661,258.600 143.012 C 257.720 142.364,256.550 141.369,256.000 140.801 C 255.450 140.234,254.370 139.332,253.600 138.797 C 252.830 138.263,251.539 137.145,250.731 136.313 C 249.924 135.481,249.090 134.800,248.880 134.800 C 248.669 134.800,247.800 134.124,246.948 133.298 C 246.097 132.472,244.770 131.354,244.000 130.815 C 243.230 130.275,242.150 129.363,241.600 128.788 C 241.050 128.213,239.880 127.223,239.000 126.588 C 238.120 125.953,236.923 124.931,236.340 124.317 C 235.756 123.703,235.099 123.200,234.880 123.200 C 234.661 123.200,233.562 122.300,232.439 121.200 C 231.315 120.100,230.212 119.200,229.987 119.200 C 229.763 119.200,228.807 118.435,227.863 117.500 C 226.920 116.565,225.567 115.362,224.857 114.827 C 224.148 114.293,223.068 113.393,222.459 112.827 C 221.850 112.262,220.653 111.260,219.799 110.600 C 218.945 109.940,217.839 108.995,217.342 108.500 C 216.844 108.005,216.249 107.600,216.020 107.600 C 215.791 107.600,214.685 106.700,213.561 105.600 C 212.438 104.500,211.350 103.600,211.145 103.600 C 210.939 103.600,209.999 102.835,209.057 101.900 C 207.203 100.060,203.705 97.029,202.297 96.043 C 201.815 95.705,200.819 94.861,200.083 94.168 C 199.348 93.474,198.263 92.659,197.673 92.356 C 197.083 92.053,196.309 91.489,195.953 91.103 C 195.291 90.383,193.600 90.125,193.600 90.744 M156.140 143.907 C 156.012 144.398,155.748 144.800,155.553 144.800 C 155.359 144.800,155.200 145.160,155.200 145.600 C 155.200 146.040,155.020 146.400,154.800 146.400 C 154.580 146.400,154.400 146.760,154.400 147.200 C 154.400 147.640,154.220 148.000,154.000 148.000 C 153.780 148.000,153.600 148.272,153.600 148.605 C 153.600 148.938,153.420 149.568,153.200 150.005 C 152.980 150.442,152.620 151.158,152.400 151.595 C 152.180 152.032,152.000 152.662,152.000 152.995 C 152.000 153.328,151.820 153.600,151.600 153.600 C 151.380 153.600,151.200 153.960,151.200 154.400 C 151.200 154.840,151.020 155.200,150.800 155.200 C 150.580 155.200,150.400 155.560,150.400 156.000 C 150.400 156.440,150.220 156.800,150.000 156.800 C 149.780 156.800,149.600 157.250,149.600 157.800 C 149.600 158.350,149.420 158.800,149.200 158.800 C 148.980 158.800,148.800 159.052,148.800 159.359 C 148.800 159.667,148.296 160.882,147.679 162.059 C 145.116 166.952,144.722 169.200,146.427 169.200 C 146.852 169.200,147.200 169.380,147.200 169.600 C 147.200 169.820,147.560 170.000,148.000 170.000 C 148.440 170.000,148.800 170.180,148.800 170.400 C 148.800 170.620,149.160 170.800,149.600 170.800 C 150.040 170.800,150.400 170.980,150.400 171.200 C 150.400 171.420,150.638 171.600,150.929 171.600 C 151.220 171.600,152.573 172.140,153.935 172.800 C 155.298 173.460,156.680 174.000,157.006 174.000 C 157.333 174.000,157.600 174.160,157.600 174.355 C 157.600 174.551,158.230 174.829,159.000 174.974 C 159.770 175.118,160.400 175.408,160.400 175.618 C 160.400 175.828,160.760 176.000,161.200 176.000 C 161.640 176.000,162.000 176.180,162.000 176.400 C 162.000 176.620,162.360 176.800,162.800 176.800 C 163.240 176.800,163.600 176.980,163.600 177.200 C 163.600 177.420,163.865 177.600,164.188 177.600 C 164.511 177.600,165.417 177.960,166.200 178.400 C 166.983 178.840,167.979 179.200,168.412 179.200 C 168.845 179.200,169.200 179.380,169.200 179.600 C 169.200 179.820,169.560 180.000,170.000 180.000 C 170.440 180.000,170.800 180.180,170.800 180.400 C 170.800 180.620,171.160 180.800,171.600 180.800 C 172.040 180.800,172.400 180.980,172.400 181.200 C 172.400 181.420,172.760 181.600,173.200 181.600 C 173.640 181.600,174.000 181.780,174.000 182.000 C 174.000 182.220,174.360 182.400,174.800 182.400 C 175.240 182.400,175.600 182.580,175.600 182.800 C 175.600 183.020,175.949 183.200,176.376 183.200 C 176.803 183.200,177.264 183.380,177.400 183.600 C 177.536 183.820,177.997 184.000,178.424 184.000 C 178.851 184.000,179.200 184.180,179.200 184.400 C 179.200 184.620,179.560 184.800,180.000 184.800 C 180.440 184.800,180.800 184.980,180.800 185.200 C 180.800 185.420,181.160 185.600,181.600 185.600 C 182.040 185.600,182.400 185.780,182.400 186.000 C 182.400 186.220,182.760 186.400,183.200 186.400 C 183.640 186.400,184.000 186.580,184.000 186.800 C 184.000 187.020,184.253 187.200,184.562 187.200 C 184.871 187.200,185.816 187.551,186.662 187.981 C 189.596 189.470,191.753 190.400,192.275 190.400 C 192.564 190.400,192.800 190.572,192.800 190.782 C 192.800 190.992,193.430 191.282,194.200 191.426 C 194.970 191.571,195.600 191.849,195.600 192.045 C 195.600 192.240,195.960 192.400,196.400 192.400 C 196.840 192.400,197.200 192.580,197.200 192.800 C 197.200 193.020,197.560 193.200,198.000 193.200 C 198.440 193.200,198.800 193.380,198.800 193.600 C 198.800 193.820,199.072 194.000,199.405 194.000 C 199.738 194.000,200.368 194.180,200.805 194.400 C 201.242 194.620,201.958 194.980,202.395 195.200 C 202.832 195.420,203.462 195.600,203.795 195.600 C 204.128 195.600,204.400 195.780,204.400 196.000 C 204.400 196.220,204.760 196.400,205.200 196.400 C 205.640 196.400,206.000 196.580,206.000 196.800 C 206.000 197.020,206.360 197.200,206.800 197.200 C 207.240 197.200,207.600 197.380,207.600 197.600 C 207.600 197.820,207.960 198.000,208.400 198.000 C 208.840 198.000,209.200 198.180,209.200 198.400 C 209.200 198.620,209.560 198.800,210.000 198.800 C 210.440 198.800,210.800 198.980,210.800 199.200 C 210.800 199.420,211.149 199.600,211.576 199.600 C 212.003 199.600,212.464 199.780,212.600 200.000 C 212.736 200.220,213.197 200.400,213.624 200.400 C 214.051 200.400,214.400 200.580,214.400 200.800 C 214.400 201.020,214.760 201.200,215.200 201.200 C 215.640 201.200,216.000 201.380,216.000 201.600 C 216.000 201.820,216.360 202.000,216.800 202.000 C 217.240 202.000,217.600 202.180,217.600 202.400 C 217.600 202.620,217.960 202.800,218.400 202.800 C 218.840 202.800,219.200 202.980,219.200 203.200 C 219.200 203.420,219.453 203.600,219.762 203.600 C 220.071 203.600,221.016 203.942,221.862 204.361 C 227.754 207.275,231.142 208.800,231.724 208.800 C 232.096 208.800,232.400 208.980,232.400 209.200 C 232.400 209.420,232.850 209.600,233.400 209.600 C 233.950 209.600,234.400 209.780,234.400 210.000 C 234.400 210.220,234.749 210.400,235.176 210.400 C 235.603 210.400,236.064 210.580,236.200 210.800 C 236.336 211.020,236.797 211.200,237.224 211.200 C 237.651 211.200,238.000 211.380,238.000 211.600 C 238.000 211.820,238.360 212.000,238.800 212.000 C 239.240 212.000,239.600 212.180,239.600 212.400 C 239.600 212.620,239.960 212.800,240.400 212.800 C 240.840 212.800,241.200 212.980,241.200 213.200 C 241.200 213.420,241.560 213.600,242.000 213.600 C 242.440 213.600,242.800 213.780,242.800 214.000 C 242.800 214.220,243.160 214.400,243.600 214.400 C 244.040 214.400,244.400 214.580,244.400 214.800 C 244.400 215.020,244.760 215.200,245.200 215.200 C 245.640 215.200,246.000 215.380,246.000 215.600 C 246.000 215.820,246.349 216.000,246.776 216.000 C 247.203 216.000,247.664 216.180,247.800 216.400 C 247.936 216.620,248.397 216.800,248.824 216.800 C 249.251 216.800,249.600 216.980,249.600 217.200 C 249.600 217.420,249.960 217.600,250.400 217.600 C 250.840 217.600,251.200 217.780,251.200 218.000 C 251.200 218.220,251.560 218.400,252.000 218.400 C 252.440 218.400,252.800 218.580,252.800 218.800 C 252.800 219.020,253.160 219.200,253.600 219.200 C 254.040 219.200,254.400 219.380,254.400 219.600 C 254.400 219.820,254.636 220.000,254.925 220.000 C 255.447 220.000,257.604 220.930,260.538 222.419 C 262.547 223.439,263.600 223.433,263.600 222.400 C 263.600 221.960,263.780 221.600,264.000 221.600 C 264.220 221.600,264.400 221.240,264.400 220.800 C 264.400 220.360,264.580 220.000,264.800 220.000 C 265.020 220.000,265.200 219.640,265.200 219.200 C 265.200 218.760,265.380 218.400,265.600 218.400 C 265.820 218.400,266.000 218.051,266.000 217.624 C 266.000 217.197,266.180 216.736,266.400 216.600 C 266.620 216.464,266.800 215.913,266.800 215.376 C 266.800 214.839,266.980 214.400,267.200 214.400 C 267.420 214.400,267.600 214.040,267.600 213.600 C 267.600 213.160,267.780 212.800,268.000 212.800 C 268.220 212.800,268.400 212.440,268.400 212.000 C 268.400 211.560,268.580 211.200,268.800 211.200 C 269.020 211.200,269.200 210.840,269.200 210.400 C 269.200 209.960,269.380 209.600,269.600 209.600 C 269.820 209.600,270.000 209.251,270.000 208.824 C 270.000 208.397,270.180 207.936,270.400 207.800 C 270.620 207.664,270.800 207.203,270.800 206.776 C 270.800 206.349,270.980 206.000,271.200 206.000 C 271.420 206.000,271.600 205.748,271.600 205.441 C 271.600 205.133,272.140 203.855,272.800 202.600 C 274.672 199.040,273.347 196.400,269.688 196.400 C 269.420 196.400,269.200 196.220,269.200 196.000 C 269.200 195.780,268.840 195.600,268.400 195.600 C 267.960 195.600,267.600 195.420,267.600 195.200 C 267.600 194.980,267.374 194.800,267.099 194.800 C 266.823 194.800,265.299 194.170,263.711 193.400 C 262.124 192.630,260.560 192.000,260.236 192.000 C 259.912 192.000,259.536 191.820,259.400 191.600 C 259.264 191.380,258.803 191.200,258.376 191.200 C 257.949 191.200,257.600 191.020,257.600 190.800 C 257.600 190.580,257.240 190.400,256.800 190.400 C 256.360 190.400,256.000 190.220,256.000 190.000 C 256.000 189.780,255.640 189.600,255.200 189.600 C 254.760 189.600,254.400 189.420,254.400 189.200 C 254.400 188.980,254.040 188.800,253.600 188.800 C 253.160 188.800,252.800 188.620,252.800 188.400 C 252.800 188.180,252.528 188.000,252.195 188.000 C 251.497 188.000,249.938 187.188,249.506 186.600 C 249.344 186.380,249.209 186.345,249.206 186.523 C 249.203 186.700,248.615 186.539,247.900 186.165 C 245.558 184.941,245.218 184.800,244.605 184.800 C 244.272 184.800,244.000 184.620,244.000 184.400 C 244.000 184.180,243.655 184.000,243.233 184.000 C 242.812 184.000,242.407 183.863,242.333 183.696 C 242.260 183.529,240.580 182.611,238.600 181.655 C 236.620 180.700,234.687 179.757,234.305 179.559 C 233.923 179.362,233.338 179.200,233.005 179.200 C 232.672 179.200,232.400 179.020,232.400 178.800 C 232.400 178.580,232.040 178.400,231.600 178.400 C 231.160 178.400,230.800 178.220,230.800 178.000 C 230.800 177.780,230.564 177.600,230.275 177.600 C 229.791 177.600,226.335 176.104,224.705 175.190 C 224.323 174.975,223.738 174.800,223.405 174.800 C 223.072 174.800,222.800 174.620,222.800 174.400 C 222.800 174.180,222.350 174.000,221.800 174.000 C 221.250 174.000,220.800 173.820,220.800 173.600 C 220.800 173.380,220.440 173.200,220.000 173.200 C 219.560 173.200,219.200 173.020,219.200 172.800 C 219.200 172.580,218.840 172.400,218.400 172.400 C 217.960 172.400,217.600 172.220,217.600 172.000 C 217.600 171.780,217.240 171.600,216.800 171.600 C 216.360 171.600,216.000 171.420,216.000 171.200 C 216.000 170.980,215.640 170.800,215.200 170.800 C 214.760 170.800,214.400 170.620,214.400 170.400 C 214.400 170.180,214.040 170.000,213.600 170.000 C 213.160 170.000,212.800 169.820,212.800 169.600 C 212.800 169.380,212.440 169.200,212.000 169.200 C 211.560 169.200,211.200 169.059,211.200 168.887 C 211.200 168.715,210.390 168.335,209.400 168.043 C 208.410 167.751,207.600 167.352,207.600 167.156 C 207.600 166.960,207.240 166.800,206.800 166.800 C 206.360 166.800,206.000 166.620,206.000 166.400 C 206.000 166.180,205.640 166.000,205.200 166.000 C 204.760 166.000,204.400 165.820,204.400 165.600 C 204.400 165.380,204.040 165.200,203.600 165.200 C 203.160 165.200,202.800 165.020,202.800 164.800 C 202.800 164.580,202.561 164.400,202.268 164.400 C 201.975 164.400,200.864 163.959,199.798 163.419 C 198.733 162.880,197.712 162.531,197.531 162.643 C 197.349 162.755,197.200 162.657,197.200 162.424 C 197.200 162.191,196.840 162.000,196.400 162.000 C 195.960 162.000,195.600 161.820,195.600 161.600 C 195.600 161.380,195.240 161.200,194.800 161.200 C 194.360 161.200,194.000 161.020,194.000 160.800 C 194.000 160.580,193.640 160.400,193.200 160.400 C 192.760 160.400,192.400 160.234,192.400 160.032 C 192.400 159.829,191.862 159.545,191.205 159.401 C 190.547 159.257,189.906 158.972,189.781 158.769 C 189.655 158.566,189.113 158.400,188.576 158.400 C 188.039 158.400,187.599 158.265,187.597 158.100 C 187.593 157.741,185.656 156.800,184.920 156.800 C 184.634 156.800,184.400 156.620,184.400 156.400 C 184.400 156.180,183.950 156.000,183.400 156.000 C 182.850 156.000,182.400 155.820,182.400 155.600 C 182.400 155.380,182.040 155.200,181.600 155.200 C 181.160 155.200,180.800 155.020,180.800 154.800 C 180.800 154.580,180.440 154.400,180.000 154.400 C 179.560 154.400,179.200 154.220,179.200 154.000 C 179.200 153.780,178.840 153.600,178.400 153.600 C 177.960 153.600,177.600 153.420,177.600 153.200 C 177.600 152.980,177.240 152.800,176.800 152.800 C 176.360 152.800,176.000 152.620,176.000 152.400 C 176.000 152.180,175.640 152.000,175.200 152.000 C 174.760 152.000,174.400 151.820,174.400 151.600 C 174.400 151.380,174.135 151.200,173.812 151.200 C 173.489 151.200,172.583 150.840,171.800 150.400 C 171.017 149.960,170.111 149.600,169.788 149.600 C 169.465 149.600,169.200 149.420,169.200 149.200 C 169.200 148.980,168.840 148.800,168.400 148.800 C 167.960 148.800,167.600 148.620,167.600 148.400 C 167.600 148.180,167.240 148.000,166.800 148.000 C 166.360 148.000,166.000 147.820,166.000 147.600 C 166.000 147.380,165.640 147.200,165.200 147.200 C 164.760 147.200,164.400 147.020,164.400 146.800 C 164.400 146.580,164.162 146.400,163.871 146.400 C 163.580 146.400,162.227 145.860,160.865 145.200 C 159.502 144.540,158.156 144.000,157.874 144.000 C 157.591 144.000,157.138 143.778,156.867 143.507 C 156.476 143.116,156.325 143.199,156.140 143.907 M134.000 202.800 C 134.000 203.240,133.820 203.600,133.600 203.600 C 133.380 203.600,133.200 204.500,133.200 205.600 C 133.200 206.700,133.020 207.600,132.800 207.600 C 132.580 207.600,132.400 208.410,132.400 209.400 C 132.400 210.390,132.238 211.200,132.040 211.200 C 131.842 211.200,131.578 211.965,131.453 212.900 C 130.848 217.416,130.692 218.227,130.359 218.580 C 130.162 218.789,130.000 219.734,130.000 220.680 C 130.000 221.626,129.820 222.400,129.600 222.400 C 129.380 222.400,129.200 223.199,129.200 224.176 C 129.200 225.153,129.020 226.064,128.800 226.200 C 127.233 227.168,129.041 229.169,131.500 229.187 C 132.435 229.194,133.200 229.380,133.200 229.600 C 133.200 229.820,134.100 230.000,135.200 230.000 C 136.300 230.000,137.200 230.162,137.200 230.360 C 137.200 230.558,137.965 230.822,138.900 230.947 C 143.416 231.552,144.227 231.708,144.580 232.041 C 144.789 232.238,145.734 232.400,146.680 232.400 C 147.626 232.400,148.400 232.580,148.400 232.800 C 148.400 233.020,149.199 233.200,150.176 233.200 C 151.153 233.200,152.064 233.380,152.200 233.600 C 152.336 233.820,153.247 234.000,154.224 234.000 C 155.201 234.000,156.000 234.162,156.000 234.360 C 156.000 234.558,156.765 234.822,157.700 234.947 C 162.216 235.552,163.027 235.708,163.380 236.041 C 163.589 236.238,164.433 236.400,165.256 236.400 C 166.079 236.400,166.864 236.580,167.000 236.800 C 167.136 237.020,168.047 237.200,169.024 237.200 C 170.001 237.200,170.800 237.380,170.800 237.600 C 170.800 237.820,171.700 238.000,172.800 238.000 C 173.900 238.000,174.800 238.162,174.800 238.360 C 174.800 238.558,175.565 238.814,176.500 238.931 C 177.435 239.047,179.100 239.343,180.200 239.589 C 184.253 240.496,186.280 240.860,189.700 241.295 C 191.625 241.540,193.200 241.889,193.200 242.070 C 193.200 242.252,194.010 242.400,195.000 242.400 C 195.990 242.400,196.800 242.580,196.800 242.800 C 196.800 243.020,197.610 243.200,198.600 243.200 C 199.590 243.200,200.400 243.380,200.400 243.600 C 200.400 243.820,201.300 244.000,202.400 244.000 C 203.500 244.000,204.400 244.180,204.400 244.400 C 204.400 244.620,205.300 244.800,206.400 244.800 C 207.500 244.800,208.400 244.980,208.400 245.200 C 208.400 245.420,209.109 245.600,209.976 245.600 C 210.843 245.600,211.664 245.780,211.800 246.000 C 211.936 246.220,212.847 246.400,213.824 246.400 C 214.801 246.400,215.600 246.580,215.600 246.800 C 215.600 247.020,216.410 247.200,217.400 247.200 C 218.390 247.200,219.200 247.380,219.200 247.600 C 219.200 247.820,220.100 248.000,221.200 248.000 C 222.300 248.000,223.200 248.180,223.200 248.400 C 223.200 248.620,223.999 248.800,224.976 248.800 C 225.953 248.800,226.864 248.980,227.000 249.200 C 227.136 249.420,227.946 249.600,228.800 249.600 C 229.654 249.600,230.464 249.780,230.600 250.000 C 230.736 250.220,231.546 250.400,232.400 250.400 C 233.254 250.400,234.064 250.580,234.200 250.800 C 234.336 251.020,235.247 251.200,236.224 251.200 C 237.201 251.200,238.000 251.380,238.000 251.600 C 238.000 251.820,238.900 252.000,240.000 252.000 C 241.100 252.000,242.000 252.180,242.000 252.400 C 242.000 252.620,242.709 252.800,243.576 252.800 C 244.443 252.800,245.264 252.980,245.400 253.200 C 245.536 253.420,246.436 253.600,247.400 253.600 C 248.364 253.600,249.264 253.780,249.400 254.000 C 249.536 254.220,250.346 254.400,251.200 254.400 C 252.054 254.400,252.864 254.580,253.000 254.800 C 254.143 256.650,256.800 254.555,256.800 251.805 C 256.800 251.058,256.980 250.336,257.200 250.200 C 257.420 250.064,257.600 249.164,257.600 248.200 C 257.600 247.236,257.768 246.343,257.973 246.217 C 258.178 246.090,258.472 244.545,258.626 242.784 C 258.779 241.023,259.061 239.486,259.252 239.368 C 259.444 239.249,259.600 238.353,259.600 237.376 C 259.600 236.399,259.780 235.600,260.000 235.600 C 260.220 235.600,260.400 234.700,260.400 233.600 C 260.400 232.500,260.580 231.600,260.800 231.600 C 261.414 231.600,261.275 228.818,260.629 228.171 C 260.314 227.857,259.335 227.600,258.452 227.600 C 257.569 227.600,256.736 227.420,256.600 227.200 C 256.464 226.980,255.791 226.800,255.105 226.800 C 254.418 226.800,253.304 226.626,252.628 226.413 C 250.601 225.776,244.895 224.800,243.192 224.800 C 242.316 224.800,241.600 224.620,241.600 224.400 C 241.600 224.180,240.880 224.000,240.000 224.000 C 239.120 224.000,238.400 223.820,238.400 223.600 C 238.400 223.380,237.601 223.200,236.624 223.200 C 235.647 223.200,234.736 223.020,234.600 222.800 C 234.464 222.580,233.553 222.400,232.576 222.400 C 231.599 222.400,230.800 222.220,230.800 222.000 C 230.800 221.780,229.900 221.600,228.800 221.600 C 227.700 221.600,226.800 221.420,226.800 221.200 C 226.800 220.980,225.990 220.800,225.000 220.800 C 224.010 220.800,223.200 220.620,223.200 220.400 C 223.200 220.180,222.491 220.000,221.624 220.000 C 220.757 220.000,219.936 219.820,219.800 219.600 C 219.664 219.380,218.753 219.200,217.776 219.200 C 216.799 219.200,216.000 219.020,216.000 218.800 C 216.000 218.580,215.100 218.400,214.000 218.400 C 212.900 218.400,212.000 218.220,212.000 218.000 C 212.000 217.780,211.201 217.600,210.224 217.600 C 209.247 217.600,208.336 217.420,208.200 217.200 C 208.064 216.980,207.254 216.800,206.400 216.800 C 205.546 216.800,204.736 216.620,204.600 216.400 C 204.464 216.180,203.654 216.000,202.800 216.000 C 201.946 216.000,201.136 215.820,201.000 215.600 C 200.864 215.380,199.953 215.200,198.976 215.200 C 197.999 215.200,197.200 215.020,197.200 214.800 C 197.200 214.580,196.300 214.400,195.200 214.400 C 194.100 214.400,193.200 214.220,193.200 214.000 C 193.200 213.780,192.401 213.600,191.424 213.600 C 190.447 213.600,189.536 213.420,189.400 213.200 C 189.264 212.980,188.479 212.800,187.656 212.800 C 186.833 212.800,185.989 212.638,185.780 212.441 C 185.571 212.244,184.680 211.980,183.800 211.856 C 179.869 211.302,178.951 211.129,178.200 210.800 C 177.760 210.607,176.770 210.356,176.000 210.241 C 174.294 209.988,171.221 209.391,168.800 208.842 C 167.810 208.618,166.235 208.427,165.300 208.417 C 164.365 208.408,163.600 208.220,163.600 208.000 C 163.600 207.780,162.700 207.600,161.600 207.600 C 160.500 207.600,159.600 207.420,159.600 207.200 C 159.600 206.980,158.790 206.800,157.800 206.800 C 156.810 206.800,156.000 206.620,156.000 206.400 C 156.000 206.180,155.190 206.000,154.200 206.000 C 153.210 206.000,152.400 205.820,152.400 205.600 C 152.400 205.380,151.590 205.200,150.600 205.200 C 149.610 205.200,148.800 205.020,148.800 204.800 C 148.800 204.580,147.900 204.400,146.800 204.400 C 145.700 204.400,144.800 204.220,144.800 204.000 C 144.800 203.780,144.001 203.600,143.024 203.600 C 142.047 203.600,141.136 203.420,141.000 203.200 C 140.864 202.980,139.953 202.800,138.976 202.800 C 137.999 202.800,137.200 202.620,137.200 202.400 C 137.200 202.180,136.480 202.000,135.600 202.000 C 134.267 202.000,134.000 202.133,134.000 202.800 M126.182 260.903 C 126.075 261.180,126.036 267.165,126.094 274.203 L 126.200 287.000 191.100 287.101 L 256.000 287.202 256.000 273.801 L 256.000 260.400 191.187 260.400 C 139.469 260.400,126.336 260.502,126.182 260.903 " stroke="none" fill="#f4841c" fill-rule="evenodd"></path><path id="path2" d="" stroke="none" fill="#d8a0c0" fill-rule="evenodd"></path><path id="path3" d="M133.732 339.500 C 165.595 339.556,217.615 339.556,249.332 339.500 C 281.050 339.443,254.980 339.397,191.400 339.397 C 127.820 339.397,101.870 339.444,133.732 339.500 " stroke="none" fill="#d8a048" fill-rule="evenodd"></path><path id="path4" d="" stroke="none" fill="#f8a01c" fill-rule="evenodd"></path></g></svg>